<?xml version="1.0" encoding="utf-8"?>
<!-- Generator: Adobe Illustrator 27.5.0, SVG Export Plug-In . SVG Version: 6.00 Build 0)  -->
<svg version="1.1" xmlns="http://www.w3.org/2000/svg" xmlns:xlink="http://www.w3.org/1999/xlink" x="0px" y="0px"
	 viewBox="0 0 500 500" style="enable-background:new 0 0 500 500;" xml:space="preserve">
<g id="Background_Complete">
	<g>
		<g>
			<path style="fill:#F5F5F5;" d="M348.999,337.031h73.726c9.513,0,17.225-7.712,17.225-17.225v-26.817
				c0-9.513-7.712-17.225-17.225-17.225h-73.726c-9.513,0-17.225,7.712-17.225,17.225v26.817
				C331.773,329.319,339.486,337.031,348.999,337.031z"/>
		</g>
		<g>
			<path style="fill:#F5F5F5;" d="M349.144,332.478h13.693l0.626,1.512c0,0-1.881,12.778-18.288,15.424
				C345.174,349.415,352.319,341.211,349.144,332.478z"/>
		</g>
		<g>
			<path style="fill:#E0E0E0;" d="M382.504,299.345v17.646h-4.991v-6.882h-6.806v6.882h-4.991v-17.646h4.991v6.63h6.806v-6.63
				H382.504z"/>
			<path style="fill:#E0E0E0;" d="M399.695,311.37h-9.932c0.403,1.387,1.588,2.193,3.353,2.193c1.336,0,2.218-0.379,3.15-1.186
				l2.521,2.622c-1.311,1.462-3.227,2.218-5.823,2.218c-4.865,0-8.017-2.999-8.017-7.083c0-4.108,3.202-7.033,7.513-7.033
				c4.033,0,7.31,2.571,7.31,7.084C399.77,310.537,399.72,310.991,399.695,311.37z M389.687,308.849h5.597
				c-0.253-1.438-1.311-2.345-2.799-2.345S389.964,307.411,389.687,308.849z"/>
			<path style="fill:#E0E0E0;" d="M398.082,321.402l1.21-3.403c0.403,0.253,0.933,0.404,1.487,0.404c0.831,0,1.411-0.555,1.411-1.79
				v-13.284h4.789v13.31c0,3.327-2.041,5.47-5.57,5.47C400.148,322.108,398.913,321.881,398.082,321.402z M401.661,299.27
				c0-1.438,1.159-2.546,2.924-2.546c1.765,0,2.924,1.033,2.924,2.47c0,1.513-1.159,2.622-2.924,2.622
				C402.82,301.816,401.661,300.706,401.661,299.27z"/>
		</g>
	</g>
	<g>
		<g>
			<path style="fill:#F5F5F5;" d="M351.965,91.854h48.419c9.513,0,17.225-7.712,17.225-17.225V62.144
				c0-9.513-7.712-17.225-17.225-17.225h-48.419c-9.513,0-17.225,7.712-17.225,17.225v12.484
				C334.74,84.142,342.452,91.854,351.965,91.854z"/>
		</g>
		<g>
			<path style="fill:#F5F5F5;" d="M348.046,88.366h10.489l0.479,1.158c0,0-1.441,9.789-14.01,11.816
				C345.006,101.341,350.479,95.056,348.046,88.366z"/>
		</g>
	</g>
	<g>
		<path style="fill:#F5F5F5;" d="M334.562,172.988h16.287l0.744,1.799c0,0-2.237,15.2-21.754,18.347
			C329.841,193.134,338.34,183.376,334.562,172.988z"/>
	</g>
	<g>
		<path style="fill:#F5F5F5;" d="M322.375,181.199h107.6c7.481,0,13.546-6.065,13.546-13.546v-28.994
			c0-7.481-6.065-13.546-13.546-13.546h-107.6c-7.481,0-13.546,6.065-13.546,13.546v28.994
			C308.829,175.134,314.893,181.199,322.375,181.199z"/>
	</g>
	<g>
		<path style="fill:#E0E0E0;" d="M345.753,158.284c0,2.792-2.308,4.43-6.645,4.43h-8.721v-16.15h8.259
			c4.246,0,6.322,1.73,6.322,4.222c0,1.545-0.785,2.792-2.169,3.507C344.622,154.939,345.753,156.323,345.753,158.284z
			 M334.909,149.863v3.115h3.138c1.524,0,2.308-0.531,2.308-1.569c0-1.015-0.784-1.545-2.308-1.545H334.909z M341.138,157.777
			c0-1.107-0.83-1.638-2.399-1.638h-3.83v3.276h3.83C340.308,159.414,341.138,158.884,341.138,157.777z"/>
		<path style="fill:#E0E0E0;" d="M347.139,156.438c0-3.761,2.976-6.437,7.06-6.437c4.13,0,7.06,2.676,7.06,6.437
			c0,3.784-2.93,6.483-7.06,6.483C350.115,162.921,347.139,160.222,347.139,156.438z M356.829,156.438
			c0-1.892-1.13-2.953-2.63-2.953c-1.477,0-2.63,1.061-2.63,2.953c0,1.915,1.153,3,2.63,3
			C355.699,159.438,356.829,158.353,356.829,156.438z"/>
		<path style="fill:#E0E0E0;" d="M376.604,155.562v7.152h-4.384v-6.437c0-1.799-0.784-2.561-2.054-2.561
			c-1.407,0-2.491,0.877-2.491,2.953v6.044h-4.384v-12.504h4.176v1.361c0.992-1.038,2.399-1.569,3.969-1.569
			C374.366,150.001,376.604,151.686,376.604,155.562z"/>
		<path style="fill:#E0E0E0;" d="M375.775,166.751l1.107-3.115c0.369,0.231,0.854,0.369,1.361,0.369
			c0.762,0,1.292-0.507,1.292-1.638v-12.158h4.384v12.182c0,3.045-1.869,5.006-5.099,5.006
			C377.668,167.397,376.537,167.19,375.775,166.751z M379.051,146.495c0-1.315,1.061-2.33,2.677-2.33
			c1.614,0,2.676,0.946,2.676,2.261c0,1.385-1.062,2.399-2.676,2.399C380.113,148.824,379.051,147.81,379.051,146.495z"/>
		<path style="fill:#E0E0E0;" d="M385.951,156.438c0-3.761,2.977-6.437,7.06-6.437c4.13,0,7.06,2.676,7.06,6.437
			c0,3.784-2.93,6.483-7.06,6.483C388.927,162.921,385.951,160.222,385.951,156.438z M395.64,156.438c0-1.892-1.13-2.953-2.63-2.953
			c-1.477,0-2.63,1.061-2.63,2.953c0,1.915,1.153,3,2.63,3C394.51,159.438,395.64,158.353,395.64,156.438z"/>
		<path style="fill:#E0E0E0;" d="M415.254,150.209v12.504h-4.176v-1.338c-0.945,1.039-2.284,1.546-3.714,1.546
			c-3.069,0-5.307-1.753-5.307-5.722v-6.99h4.384v6.275c0,1.938,0.761,2.699,2.076,2.699c1.292,0,2.354-0.854,2.354-2.953v-6.021
			H415.254z"/>
		<path style="fill:#E0E0E0;" d="M426.446,150.001v3.945c-0.393-0.046-0.669-0.069-0.992-0.069c-1.776,0-2.999,0.9-2.999,3.092
			v5.745h-4.384v-12.504h4.176v1.499C423.147,150.578,424.6,150.001,426.446,150.001z"/>
	</g>
	<g>
		<g>
			<g>
				<path style="fill:#F5F5F5;" d="M141.545,267.21h-15.158l-0.693,1.674c0,0,2.082,14.146,20.245,17.075
					C145.94,285.959,138.03,276.877,141.545,267.21z"/>
			</g>
		</g>
		<g>
			<path style="fill:#F5F5F5;" d="M147.303,271.795h-98.26c-7.481,0-13.546-6.065-13.546-13.546v-25.105
				c0-7.481,6.065-13.546,13.546-13.546h98.26c7.481,0,13.546,6.065,13.546,13.546v25.105
				C160.849,265.73,154.784,271.795,147.303,271.795z"/>
		</g>
	</g>
	<g>
		<g>
			<g>
				<path style="fill:#F5F5F5;" d="M167.585,85.868h-11.103l-0.508,1.341c0,0,1.525,11.336,14.829,13.683
					C170.804,100.893,165.011,93.615,167.585,85.868z"/>
			</g>
		</g>
		<g>
			<path style="fill:#F5F5F5;" d="M168.179,89.542h-64.723c-7.481,0-13.546-6.065-13.546-13.546V61.26
				c0-7.481,6.065-13.546,13.546-13.546h64.723c7.481,0,13.546,6.065,13.546,13.546v14.736
				C181.724,83.477,175.66,89.542,168.179,89.542z"/>
		</g>
	</g>
	<g>
		<path style="fill:#E0E0E0;" d="M69.237,246.126c0,2.576-1.954,4.058-5.754,4.058h-7.17v-15.028h6.741
			c3.457,0,5.389,1.46,5.389,3.886c0,1.632-0.837,2.77-2.018,3.349C68.121,242.863,69.237,244.129,69.237,246.126z M58.46,236.894
			v4.809h4.401c2.19,0,3.435-0.815,3.435-2.404c0-1.589-1.245-2.405-3.435-2.405H58.46z M67.068,245.954
			c0-1.739-1.288-2.512-3.671-2.512H58.46v5.002h4.938C65.78,248.444,67.068,247.693,67.068,245.954z"/>
		<path style="fill:#E0E0E0;" d="M71.216,244.494c0-3.392,2.512-5.796,5.925-5.796c3.413,0,5.904,2.404,5.904,5.796
			c0,3.393-2.49,5.818-5.904,5.818C73.728,250.312,71.216,247.887,71.216,244.494z M80.962,244.494c0-2.426-1.631-3.993-3.821-3.993
			c-2.19,0-3.843,1.567-3.843,3.993c0,2.426,1.653,4.015,3.843,4.015C79.331,248.509,80.962,246.92,80.962,244.494z"/>
		<path style="fill:#E0E0E0;" d="M96.703,243.636v6.548h-2.061v-6.312c0-2.233-1.116-3.328-3.07-3.328
			c-2.19,0-3.607,1.31-3.607,3.779v5.861h-2.061v-11.378h1.975v1.717c0.837-1.159,2.297-1.825,4.101-1.825
			C94.75,238.698,96.703,240.286,96.703,243.636z"/>
		<path style="fill:#E0E0E0;" d="M96.6,253.79l0.666-1.588c0.408,0.343,1.009,0.536,1.674,0.536c1.095,0,1.696-0.687,1.696-1.997
			v-11.937h2.061v11.894c0,2.319-1.288,3.779-3.628,3.779C98.124,254.478,97.179,254.263,96.6,253.79z M100.271,235.284
			c0-0.751,0.601-1.352,1.396-1.352c0.794,0,1.395,0.58,1.395,1.309c0,0.773-0.58,1.374-1.395,1.374
			C100.872,236.615,100.271,236.036,100.271,235.284z"/>
		<path style="fill:#E0E0E0;" d="M105.575,244.494c0-3.392,2.512-5.796,5.925-5.796c3.414,0,5.904,2.404,5.904,5.796
			c0,3.393-2.49,5.818-5.904,5.818C108.087,250.312,105.575,247.887,105.575,244.494z M115.322,244.494
			c0-2.426-1.631-3.993-3.821-3.993c-2.19,0-3.843,1.567-3.843,3.993c0,2.426,1.653,4.015,3.843,4.015
			C113.691,248.509,115.322,246.92,115.322,244.494z"/>
		<path style="fill:#E0E0E0;" d="M130.87,238.805v11.378h-1.954v-1.718c-0.837,1.181-2.254,1.847-3.865,1.847
			c-2.941,0-4.895-1.61-4.895-4.959v-6.548h2.061v6.312c0,2.233,1.117,3.349,3.07,3.349c2.147,0,3.521-1.331,3.521-3.778v-5.882
			H130.87z"/>
		<path style="fill:#E0E0E0;" d="M140.921,238.698v1.997c-0.172-0.021-0.322-0.021-0.472-0.021c-2.211,0-3.585,1.353-3.585,3.843
			v5.668h-2.061v-11.378h1.975v1.911C137.507,239.385,138.924,238.698,140.921,238.698z"/>
	</g>
</g>
<g id="Background_Simple" style="display:none;">
	<g style="display:inline;">
		<path style="fill:#F5F5F5;" d="M392.418,103.828l-1.991-3.28c-16.781-27.653-47.121-44.322-79.108-42.3
			c-4.112,0.26-8.206,0.817-12.246,1.681c-29.084,6.225-54.39,28.219-64.879,56.386c-6.169,16.566-7.893,35.639-19.599,48.788
			c-15.236,17.113-41.102,17.65-63.844,16.941c-22.742-0.709-48.625-0.104-63.787,17.076c-9.495,10.76-12.513,26.061-11.747,40.47
			c2.027,38.149,28.61,72.261,62.417,89.216c33.807,16.955,73.611,18.474,110.611,11.015
			c51.832-10.448,101.125-39.142,130.753-83.461C408.625,212.042,416.124,151.662,392.418,103.828z"/>
	</g>
	<g style="display:inline;">
		<circle style="fill:#F5F5F5;" cx="389.85" cy="315.882" r="23.125"/>
	</g>
	<g style="display:inline;">
		
			<ellipse transform="matrix(0.7071 -0.7071 0.7071 0.7071 69.9086 319.7852)" style="fill:#F5F5F5;" cx="420.969" cy="75.505" rx="17.555" ry="17.555"/>
	</g>
</g>
<g id="Desk">
	<g>
		<g>
			<path style="fill:#263238;" d="M477.402,458.382c0,0.144-101.82,0.26-227.391,0.26c-125.615,0-227.413-0.116-227.413-0.26
				c0-0.144,101.798-0.26,227.413-0.26C375.582,458.121,477.402,458.238,477.402,458.382z"/>
		</g>
	</g>
</g>
<g id="Books">
	<g>
		<g>
			<g>
				<g>
					<g>
						<g>
							<g>
								
									<rect x="357.089" y="420.164" transform="matrix(-1 -1.224647e-16 1.224647e-16 -1 733.264 876.4926)" style="fill:#F5F5F5;" width="19.086" height="36.164"/>
							</g>
						</g>
					</g>
				</g>
			</g>
			<g>
				<g>
					<g>
						<g>
							<g>
								
									<rect x="376.175" y="418.893" transform="matrix(-1 -1.224647e-16 1.224647e-16 -1 841.9384 876.9969)" style="fill:#455A64;" width="89.589" height="39.211"/>
							</g>
						</g>
					</g>
				</g>
			</g>
			<g>
				<g>
					<g>
						<g>
							<g>
								<path style="fill:#455A64;" d="M355.595,458.104h23.029v-2.543h-23.029c-0.702,0-1.272,0.569-1.272,1.271l0,0
									C354.324,457.534,354.893,458.104,355.595,458.104z"/>
							</g>
						</g>
					</g>
				</g>
			</g>
			<g>
				<g>
					<g>
						<g>
							<g>
								<path style="fill:#455A64;" d="M355.425,421.436h23.199v-2.543h-23.199c-0.608,0-1.101,0.493-1.101,1.101v0.341
									C354.324,420.943,354.817,421.436,355.425,421.436z"/>
							</g>
						</g>
					</g>
				</g>
			</g>
			<g>
				<g>
					<g>
						<g>
							<g>
								<g>
									<path style="fill:#E0E0E0;" d="M357.089,425.012c0,0.06,4.273,0.109,9.542,0.109c5.271,0,9.543-0.049,9.543-0.109
										c0-0.06-4.272-0.109-9.543-0.109C361.362,424.903,357.089,424.952,357.089,425.012z"/>
								</g>
							</g>
						</g>
					</g>
				</g>
			</g>
			<g>
				<g>
					<g>
						<g>
							<g>
								<g>
									<path style="fill:#E0E0E0;" d="M357.089,429.651c0,0.06,4.273,0.109,9.542,0.109c5.271,0,9.543-0.049,9.543-0.109
										c0-0.061-4.272-0.109-9.543-0.109C361.362,429.541,357.089,429.59,357.089,429.651z"/>
								</g>
							</g>
						</g>
					</g>
				</g>
			</g>
			<g>
				<g>
					<g>
						<g>
							<g>
								<g>
									<path style="fill:#E0E0E0;" d="M357.089,434.289c0,0.06,4.273,0.109,9.542,0.109c5.271,0,9.543-0.049,9.543-0.109
										c0-0.06-4.272-0.109-9.543-0.109C361.362,434.179,357.089,434.228,357.089,434.289z"/>
								</g>
							</g>
						</g>
					</g>
				</g>
			</g>
			<g>
				<g>
					<g>
						<g>
							<g>
								<g>
									<path style="fill:#E0E0E0;" d="M357.089,438.927c0,0.06,4.273,0.109,9.542,0.109c5.271,0,9.543-0.049,9.543-0.109
										c0-0.06-4.272-0.109-9.543-0.109C361.362,438.818,357.089,438.866,357.089,438.927z"/>
								</g>
							</g>
						</g>
					</g>
				</g>
			</g>
			<g>
				<g>
					<g>
						<g>
							<g>
								<g>
									<path style="fill:#E0E0E0;" d="M357.089,443.565c0,0.061,4.273,0.109,9.542,0.109c5.271,0,9.543-0.049,9.543-0.109
										c0-0.06-4.272-0.109-9.543-0.109C361.362,443.456,357.089,443.505,357.089,443.565z"/>
								</g>
							</g>
						</g>
					</g>
				</g>
			</g>
			<g>
				<g>
					<g>
						<g>
							<g>
								<g>
									<path style="fill:#E0E0E0;" d="M357.089,448.203c0,0.06,4.273,0.109,9.542,0.109c5.271,0,9.543-0.049,9.543-0.109
										c0-0.061-4.272-0.109-9.543-0.109C361.362,448.094,357.089,448.143,357.089,448.203z"/>
								</g>
							</g>
						</g>
					</g>
				</g>
			</g>
			<g>
				<g>
					<g>
						<g>
							<g>
								<g>
									<path style="fill:#E0E0E0;" d="M357.089,452.841c0,0.06,4.273,0.109,9.542,0.109c5.271,0,9.543-0.049,9.543-0.109
										s-4.272-0.109-9.543-0.109C361.362,452.732,357.089,452.781,357.089,452.841z"/>
								</g>
							</g>
						</g>
					</g>
				</g>
			</g>
		</g>
		<g>
			<g>
				<g>
					<g>
						<g>
							<g>
								<g>
									<g>
										<g>
											<rect x="441.933" y="381.314" style="fill:#F5F5F5;" width="18.416" height="21.894"/>
										</g>
									</g>
								</g>
							</g>
						</g>
						<g>
							<g>
								<g>
									<g>
										<g>
											<rect x="359.34" y="379.887" style="fill:#FF725E;" width="83.228" height="24.698"/>
										</g>
									</g>
								</g>
							</g>
						</g>
						<g>
							<g>
								<g>
									<g>
										<g>
											<path style="fill:#FF725E;" d="M460.907,381.964h-20.571v-2.077h20.571c0.574,0,1.039,0.465,1.039,1.039l0,0
												C461.946,381.499,461.481,381.964,460.907,381.964z"/>
										</g>
									</g>
								</g>
							</g>
						</g>
						<g>
							<g>
								<g>
									<g>
										<g>
											<path style="fill:#FF725E;" d="M460.907,404.585h-20.571v-2.077h20.571c0.574,0,1.039,0.465,1.039,1.039l0,0
												C461.946,404.12,461.481,404.585,460.907,404.585z"/>
										</g>
									</g>
								</g>
							</g>
						</g>
						<g style="opacity:0.4;">
							<g>
								<g>
									<g>
										<g>
											<rect x="426.191" y="379.887" width="9.833" height="24.698"/>
										</g>
									</g>
								</g>
							</g>
						</g>
						<g style="opacity:0.4;">
							<g>
								<g>
									<g>
										<g>
											<rect x="366.724" y="379.887" width="9.833" height="24.698"/>
										</g>
									</g>
								</g>
							</g>
						</g>
						<g>
							<g>
								<g>
									<g>
										<g>
											<g>
												<path style="fill:#E0E0E0;" d="M460.349,384.935c0,0.06-3.986,0.109-8.901,0.109c-4.918,0-8.903-0.049-8.903-0.109
													c0-0.06,3.985-0.109,8.903-0.109C456.363,384.826,460.349,384.875,460.349,384.935z"/>
											</g>
										</g>
									</g>
								</g>
							</g>
						</g>
						<g>
							<g>
								<g>
									<g>
										<g>
											<g>
												<path style="fill:#E0E0E0;" d="M460.349,388.218c0,0.06-3.986,0.109-8.901,0.109c-4.918,0-8.903-0.049-8.903-0.109
													c0-0.06,3.985-0.109,8.903-0.109C456.363,388.109,460.349,388.158,460.349,388.218z"/>
											</g>
										</g>
									</g>
								</g>
							</g>
						</g>
						<g>
							<g>
								<g>
									<g>
										<g>
											<g>
												<path style="fill:#E0E0E0;" d="M460.349,392.261c0,0.06-3.986,0.109-8.901,0.109c-4.918,0-8.903-0.049-8.903-0.109
													c0-0.06,3.985-0.109,8.903-0.109C456.363,392.151,460.349,392.2,460.349,392.261z"/>
											</g>
										</g>
									</g>
								</g>
							</g>
						</g>
						<g>
							<g>
								<g>
									<g>
										<g>
											<g>
												<path style="fill:#E0E0E0;" d="M460.349,396.303c0,0.06-3.986,0.109-8.901,0.109c-4.918,0-8.903-0.049-8.903-0.109
													c0-0.06,3.985-0.109,8.903-0.109C456.363,396.194,460.349,396.243,460.349,396.303z"/>
											</g>
										</g>
									</g>
								</g>
							</g>
						</g>
						<g>
							<g>
								<g>
									<g>
										<g>
											<g>
												<path style="fill:#E0E0E0;" d="M460.349,400.346c0,0.06-3.986,0.109-8.901,0.109c-4.918,0-8.903-0.049-8.903-0.109
													c0-0.06,3.985-0.109,8.903-0.109C456.363,400.237,460.349,400.285,460.349,400.346z"/>
											</g>
										</g>
									</g>
								</g>
							</g>
						</g>
					</g>
					<g style="opacity:0.2;">
						<g>
							<g>
								<g>
									<g>
										<rect x="383.461" y="390.037" width="37.443" height="4.447"/>
									</g>
								</g>
							</g>
						</g>
					</g>
				</g>
				<g>
					<g>
						<g>
							<g>
								<g>
									<g>
										<rect x="441.463" y="405.069" style="fill:#FAFAFA;" width="18.699" height="13.34"/>
									</g>
								</g>
							</g>
						</g>
					</g>
					<g>
						<g>
							<g>
								<g>
									<g>
										<rect x="362.095" y="404.585" style="fill:#263238;" width="79.577" height="14.308"/>
									</g>
								</g>
							</g>
						</g>
					</g>
					<g>
						<g>
							<g>
								<g>
									<g>
										<path style="fill:#263238;" d="M441.094,405.553h20.098c0.267,0,0.484-0.217,0.484-0.484l0,0
											c0-0.267-0.217-0.484-0.484-0.484h-20.098V405.553z"/>
									</g>
								</g>
							</g>
						</g>
					</g>
					<g>
						<g>
							<g>
								<g>
									<g>
										<path style="fill:#263238;" d="M441.094,418.893h20.163c0.232,0,0.419-0.188,0.419-0.419v-0.13
											c0-0.232-0.188-0.419-0.419-0.419h-20.163V418.893z"/>
									</g>
								</g>
							</g>
						</g>
					</g>
					<g>
						<g>
							<g>
								<g>
									<g>
										<g>
											<path style="fill:#E0E0E0;" d="M460.162,407.603c0,0.061-4.139,0.109-9.245,0.109c-5.107,0-9.245-0.049-9.245-0.109
												c0-0.06,4.139-0.109,9.245-0.109C456.023,407.494,460.162,407.543,460.162,407.603z"/>
										</g>
									</g>
								</g>
							</g>
						</g>
					</g>
					<g>
						<g>
							<g>
								<g>
									<g>
										<g>
											<path style="fill:#E0E0E0;" d="M460.162,410.127c0,0.06-4.139,0.109-9.245,0.109c-5.107,0-9.245-0.049-9.245-0.109
												c0-0.06,4.139-0.109,9.245-0.109C456.023,410.017,460.162,410.066,460.162,410.127z"/>
										</g>
									</g>
								</g>
							</g>
						</g>
					</g>
					<g>
						<g>
							<g>
								<g>
									<g>
										<g>
											<path style="fill:#E0E0E0;" d="M460.162,412.651c0,0.061-4.139,0.109-9.245,0.109c-5.107,0-9.245-0.049-9.245-0.109
												c0-0.06,4.139-0.109,9.245-0.109C456.023,412.541,460.162,412.59,460.162,412.651z"/>
										</g>
									</g>
								</g>
							</g>
						</g>
					</g>
					<g>
						<g>
							<g>
								<g>
									<g>
										<g>
											<path style="fill:#E0E0E0;" d="M460.162,415.174c0,0.06-4.139,0.109-9.245,0.109c-5.107,0-9.245-0.049-9.245-0.109
												c0-0.06,4.139-0.109,9.245-0.109C456.023,415.065,460.162,415.114,460.162,415.174z"/>
										</g>
									</g>
								</g>
							</g>
						</g>
					</g>
				</g>
			</g>
		</g>
		<g>
			<g>
				<g>
					<path style="fill:#FFFFFF;" d="M386.554,436.003h3.484c2.509,0,4.229,1.487,4.229,3.771s-1.72,3.771-4.229,3.771h-3.484
						V436.003z M389.951,442.112c1.523,0,2.52-0.894,2.52-2.338s-0.997-2.339-2.52-2.339h-1.621v4.676H389.951z"/>
				</g>
			</g>
			<g>
				<g>
					<path style="fill:#FFFFFF;" d="M395.607,436.003h1.775v7.542h-1.775V436.003z"/>
				</g>
			</g>
			<g>
				<g>
					<path style="fill:#FFFFFF;" d="M398.719,439.774c0-2.273,1.775-3.901,4.164-3.901c1.326,0,2.432,0.474,3.155,1.337
						l-1.139,1.034c-0.515-0.582-1.162-0.884-1.929-0.884c-1.435,0-2.453,0.992-2.453,2.414c0,1.423,1.018,2.413,2.453,2.413
						c0.767,0,1.414-0.301,1.929-0.894l1.139,1.035c-0.723,0.872-1.829,1.346-3.166,1.346
						C400.494,443.674,398.719,442.047,398.719,439.774z"/>
				</g>
			</g>
			<g>
				<g>
					<path style="fill:#FFFFFF;" d="M408.746,437.425h-2.453v-1.422h6.683v1.422h-2.454v6.12h-1.775V437.425z"/>
				</g>
			</g>
			<g>
				<g>
					<path style="fill:#FFFFFF;" d="M413.93,436.003h1.775v7.542h-1.775V436.003z"/>
				</g>
			</g>
			<g>
				<g>
					<path style="fill:#FFFFFF;" d="M417.043,439.774c0-2.241,1.775-3.901,4.197-3.901c2.41,0,4.196,1.649,4.196,3.901
						s-1.786,3.9-4.196,3.9C418.817,443.674,417.043,442.015,417.043,439.774z M423.639,439.774c0-1.433-1.03-2.414-2.399-2.414
						s-2.399,0.981-2.399,2.414c0,1.433,1.03,2.413,2.399,2.413S423.639,441.207,423.639,439.774z"/>
				</g>
			</g>
			<g>
				<g>
					<path style="fill:#FFFFFF;" d="M433.808,436.003v7.542h-1.458l-3.823-4.579v4.579h-1.753v-7.542h1.469l3.812,4.579v-4.579
						H433.808z"/>
				</g>
			</g>
			<g>
				<g>
					<path style="fill:#FFFFFF;" d="M440.68,441.929h-3.561l-0.68,1.616h-1.818l3.418-7.542h1.753l3.429,7.542h-1.863
						L440.68,441.929z M440.121,440.603l-1.216-2.887l-1.216,2.887H440.121z"/>
				</g>
			</g>
			<g>
				<g>
					<path style="fill:#FFFFFF;" d="M448.91,443.545l-1.479-2.101h-0.088h-1.545v2.101h-1.775v-7.542h3.32
						c2.049,0,3.331,1.045,3.331,2.736c0,1.132-0.58,1.961-1.577,2.382l1.72,2.424H448.91z M447.244,437.425h-1.446v2.629h1.446
						c1.085,0,1.633-0.495,1.633-1.315C448.877,437.909,448.329,437.425,447.244,437.425z"/>
				</g>
			</g>
			<g>
				<g>
					<path style="fill:#FFFFFF;" d="M455.65,440.873v2.672h-1.775v-2.694l-2.969-4.848h1.884l2.049,3.35l2.048-3.35h1.742
						L455.65,440.873z"/>
				</g>
			</g>
		</g>
		<g>
			<g>
				<g>
					<path style="fill:#FFFFFF;" d="M386.279,409.182l-0.54,2.691h3.347l-0.081,0.414h-3.346l-0.558,2.779h-0.459l1.259-6.297h4.21
						l-0.09,0.414H386.279z"/>
				</g>
			</g>
			<g>
				<g>
					<path style="fill:#FFFFFF;" d="M393.248,410.333l-0.081,0.441c-0.054,0-0.09-0.009-0.144-0.009
						c-1.061,0-1.763,0.638-2.014,1.889l-0.486,2.41h-0.45l0.936-4.696h0.441l-0.198,0.99
						C391.665,410.684,392.303,410.333,393.248,410.333z"/>
				</g>
			</g>
			<g>
				<g>
					<path style="fill:#FFFFFF;" d="M393.878,412.817c-0.009,0.098-0.019,0.198-0.019,0.297c0,1.017,0.594,1.583,1.737,1.583
						c0.666,0,1.241-0.234,1.61-0.63l0.207,0.315c-0.414,0.449-1.107,0.719-1.854,0.719c-1.331,0-2.141-0.738-2.141-1.97
						c0-1.601,1.089-2.798,2.564-2.798c1.224,0,1.997,0.738,1.997,1.961c0,0.181-0.026,0.369-0.053,0.522H393.878z M393.931,412.466
						h3.616c0.009-0.082,0.009-0.153,0.009-0.234c0-0.972-0.648-1.511-1.584-1.511C394.939,410.721,394.156,411.422,393.931,412.466
						z"/>
				</g>
			</g>
			<g>
				<g>
					<path style="fill:#FFFFFF;" d="M403.672,411.836c0,0.162-0.019,0.333-0.054,0.513l-0.54,2.717h-0.449l0.54-2.717
						c0.036-0.162,0.045-0.306,0.045-0.45c0-0.728-0.441-1.16-1.323-1.16c-1.07,0-1.826,0.603-2.06,1.772l-0.512,2.555h-0.45
						l0.936-4.696h0.441l-0.181,0.89c0.459-0.638,1.143-0.927,1.943-0.927C403.087,410.333,403.672,410.909,403.672,411.836z"/>
				</g>
			</g>
			<g>
				<g>
					<path style="fill:#FFFFFF;" d="M404.857,413.149c0-1.628,1.125-2.816,2.699-2.816c0.837,0,1.448,0.298,1.781,0.882
						l-0.369,0.225c-0.288-0.477-0.773-0.701-1.44-0.701c-1.286,0-2.221,1.007-2.221,2.383c0,0.999,0.611,1.575,1.7,1.575
						c0.621,0,1.196-0.243,1.556-0.683l0.316,0.252c-0.414,0.531-1.134,0.836-1.907,0.836
						C405.667,415.101,404.857,414.337,404.857,413.149z"/>
				</g>
			</g>
			<g>
				<g>
					<path style="fill:#FFFFFF;" d="M414.643,411.836c0,0.162-0.019,0.333-0.054,0.513l-0.54,2.717h-0.449l0.54-2.717
						c0.036-0.162,0.045-0.306,0.045-0.45c0-0.728-0.441-1.16-1.323-1.16c-1.07,0-1.826,0.603-2.06,1.772l-0.512,2.555h-0.45
						l1.331-6.675h0.45l-0.566,2.851c0.459-0.63,1.133-0.909,1.925-0.909C414.058,410.333,414.643,410.909,414.643,411.836z"/>
				</g>
			</g>
		</g>
		<g>
			<g>
				<g>
					<path style="fill:#FFFFFF;" d="M387.121,388.377h1.17l-1.26,6.297h-1.169L387.121,388.377z"/>
				</g>
			</g>
			<g>
				<g>
					<path style="fill:#FFFFFF;" d="M390.205,393.065c-0.009,0.072-0.018,0.144-0.018,0.207c0,0.332,0.17,0.539,0.566,0.539
						c0.216,0,0.441-0.063,0.63-0.188l0.198,0.828c-0.342,0.215-0.765,0.287-1.16,0.287c-0.819,0-1.377-0.477-1.377-1.286
						c0-0.117,0.009-0.243,0.037-0.377l0.459-2.267h-0.783l0.18-0.9h0.783l0.216-1.097h1.124l-0.225,1.097h1.295l-0.18,0.9h-1.296
						L390.205,393.065z"/>
				</g>
			</g>
			<g>
				<g>
					<path style="fill:#FFFFFF;" d="M397.922,389.871l-0.953,4.803h-1.071l0.099-0.495c-0.404,0.36-0.935,0.558-1.565,0.558
						c-1.178,0-2.114-0.783-2.114-2.114c0-1.637,1.169-2.806,2.707-2.806c0.747,0,1.313,0.252,1.637,0.765l0.135-0.711H397.922z
						 M396.376,391.976c0-0.746-0.46-1.205-1.269-1.205c-0.954,0-1.656,0.737-1.656,1.798c0,0.747,0.46,1.206,1.268,1.206
						C395.673,393.775,396.376,393.037,396.376,391.976z"/>
				</g>
			</g>
			<g>
				<g>
					<path style="fill:#FFFFFF;" d="M399.774,388h1.124l-1.331,6.675h-1.124L399.774,388z"/>
				</g>
			</g>
			<g>
				<g>
					<path style="fill:#FFFFFF;" d="M401.994,389.871h1.124l-0.953,4.803h-1.124L401.994,389.871z M402.138,388.449
						c0-0.405,0.306-0.719,0.765-0.719c0.404,0,0.675,0.27,0.675,0.602c0,0.441-0.306,0.747-0.765,0.747
						C402.408,389.079,402.138,388.791,402.138,388.449z"/>
				</g>
			</g>
			<g>
				<g>
					<path style="fill:#FFFFFF;" d="M409.289,389.871l-0.953,4.803h-1.071l0.099-0.495c-0.404,0.36-0.935,0.558-1.565,0.558
						c-1.179,0-2.114-0.783-2.114-2.114c0-1.637,1.169-2.806,2.707-2.806c0.747,0,1.313,0.252,1.637,0.765l0.135-0.711H409.289z
						 M407.742,391.976c0-0.746-0.46-1.205-1.268-1.205c-0.954,0-1.656,0.737-1.656,1.798c0,0.747,0.46,1.206,1.268,1.206
						C407.04,393.775,407.742,393.037,407.742,391.976z"/>
				</g>
			</g>
			<g>
				<g>
					<path style="fill:#FFFFFF;" d="M415.134,391.437c0,0.18-0.026,0.369-0.063,0.576l-0.531,2.662h-1.124l0.521-2.636
						c0.027-0.135,0.036-0.26,0.036-0.369c0-0.557-0.306-0.872-0.962-0.872c-0.819,0-1.385,0.45-1.575,1.385l-0.504,2.492h-1.124
						l0.953-4.803h1.071l-0.109,0.531c0.441-0.396,1.017-0.585,1.656-0.585C414.441,389.817,415.134,390.383,415.134,391.437z"/>
				</g>
			</g>
		</g>
	</g>
</g>
<g id="Speech_Bubble_4">
	<g>
		<g>
			<g>
				<path style="fill:#FAFAFA;" d="M342.725,204.972h83.834c5.18,0,9.379,4.199,9.379,9.379v27.441c0,5.18-4.199,9.379-9.379,9.379
					h-11.212c0.377,6.375,4.756,11.404,4.756,11.404c-10.397-1.677-14.957-7.42-16.906-11.404h-60.473
					c-5.18,0-9.379-4.199-9.379-9.379V214.35C333.346,209.171,337.545,204.972,342.725,204.972z"/>
			</g>
			<g>
				<g>
					<path style="fill:#263238;" d="M342.725,204.972c0.005,0.046-0.793-0.025-2.244,0.328c-1.414,0.355-3.588,1.289-5.279,3.614
						c-0.843,1.142-1.475,2.647-1.681,4.369c-0.082,0.859-0.058,1.777-0.056,2.731c0.003,0.954,0.006,1.945,0.01,2.973
						c0.01,4.115,0.022,8.817,0.036,14.045c0.005,2.615,0.01,5.361,0.016,8.231c-0.018,1.424,0.17,2.868,0.781,4.213
						c0.604,1.332,1.515,2.572,2.718,3.509c1.199,0.933,2.644,1.62,4.207,1.852c0.776,0.151,1.573,0.122,2.398,0.129
						c0.82-0.001,1.646-0.002,2.48-0.003c3.333-0.004,6.774-0.008,10.315-0.012c14.165-0.01,29.925-0.021,46.774-0.034l0.159,0
						l0.07,0.142c1.47,3.009,3.822,5.674,6.761,7.582c1.465,0.959,3.065,1.738,4.739,2.353c1.684,0.593,3.436,1.014,5.219,1.325
						l-0.237,0.426c-1.293-1.577-2.372-3.365-3.235-5.31c-0.861-1.942-1.436-4.065-1.586-6.249l-0.019-0.276h0.279
						c0.124,0,0.259,0,0.394,0c2.616,0,5.216,0,7.8,0c1.281-0.018,2.603,0.042,3.838-0.041c1.242-0.11,2.458-0.474,3.545-1.069
						c2.18-1.187,3.813-3.281,4.435-5.641c0.335-1.182,0.334-2.396,0.323-3.651c0-1.244,0.001-2.483,0.001-3.716
						c0.002-4.933,0.004-9.779,0.006-14.525c0.001-2.373,0.003-4.721,0.004-7.042c0.134-2.304-0.472-4.556-1.816-6.331
						c-1.317-1.771-3.267-3.03-5.376-3.476c-1.053-0.234-2.127-0.214-3.225-0.214c-1.089-0.001-2.171-0.002-3.244-0.003
						c-4.295-0.005-8.464-0.009-12.495-0.013c-8.061-0.012-15.571-0.022-22.428-0.032c-13.702-0.035-24.792-0.063-32.475-0.083
						c-3.823-0.021-6.795-0.038-8.829-0.049c-0.998-0.011-1.763-0.02-2.296-0.026C342.99,204.99,342.725,204.972,342.725,204.972
						s0.265-0.018,0.782-0.027c0.533-0.006,1.298-0.015,2.296-0.026c2.034-0.011,5.006-0.028,8.829-0.049
						c7.683-0.02,18.773-0.048,32.475-0.083c6.857-0.01,14.367-0.02,22.428-0.032c4.031-0.004,8.201-0.009,12.495-0.013
						c1.074-0.001,2.155-0.002,3.244-0.003c1.076-0.001,2.214-0.026,3.325,0.219c2.219,0.466,4.272,1.785,5.661,3.647
						c1.418,1.845,2.06,4.286,1.921,6.618c0.001,2.321,0.003,4.669,0.004,7.042c0.002,4.746,0.004,9.592,0.006,14.525
						c0,1.233,0.001,2.472,0.001,3.716c0.012,1.226,0.016,2.541-0.338,3.785c-0.657,2.495-2.381,4.707-4.684,5.962
						c-1.148,0.63-2.434,1.016-3.747,1.132c-1.327,0.087-2.583,0.024-3.884,0.044c-2.583,0-5.184,0-7.8,0c-0.135,0-0.27,0-0.394,0
						l0.26-0.276c0.29,4.232,2.25,8.206,4.692,11.249l0.437,0.544l-0.674-0.118c-1.811-0.316-3.594-0.745-5.311-1.351
						c-1.708-0.628-3.344-1.425-4.846-2.409c-3.012-1.956-5.428-4.697-6.935-7.789l0.228,0.142
						c-16.849-0.012-32.609-0.023-46.774-0.034c-3.541-0.004-6.981-0.008-10.315-0.012c-0.833-0.001-1.66-0.002-2.48-0.003
						c-0.81-0.009-1.653,0.018-2.463-0.141c-1.632-0.247-3.138-0.969-4.384-1.945c-1.25-0.98-2.196-2.274-2.819-3.663
						c-0.631-1.393-0.823-2.925-0.797-4.363c0.006-2.87,0.011-5.616,0.016-8.231c0.013-5.227,0.025-9.93,0.036-14.045
						c0.003-1.028,0.006-2.019,0.009-2.973c0.005-0.952-0.014-1.869,0.077-2.755c0.225-1.761,0.884-3.292,1.754-4.448
						c1.746-2.352,3.965-3.268,5.4-3.599c0.732-0.172,1.305-0.231,1.687-0.234C342.53,204.966,342.725,204.972,342.725,204.972z"/>
				</g>
			</g>
		</g>
		<g>
			<path style="fill:#FF725E;" d="M351.269,234.505l1.386-3.075c1.487,1.084,3.706,1.84,5.823,1.84c2.42,0,3.403-0.807,3.403-1.891
				c0-3.302-10.26-1.033-10.26-7.587c0-3,2.42-5.495,7.436-5.495c2.218,0,4.486,0.529,6.125,1.563l-1.26,3.101
				c-1.639-0.933-3.328-1.387-4.891-1.387c-2.42,0-3.353,0.907-3.353,2.017c0,3.252,10.26,1.009,10.26,7.486
				c0,2.949-2.445,5.471-7.487,5.471C355.655,236.547,352.832,235.715,351.269,234.505z"/>
			<path style="fill:#FF725E;" d="M380.459,228.506v7.738h-3.68v-1.689c-0.731,1.234-2.143,1.89-4.135,1.89
				c-3.176,0-5.066-1.764-5.066-4.108c0-2.395,1.689-4.059,5.823-4.059h3.126c0-1.688-1.009-2.672-3.126-2.672
				c-1.438,0-2.925,0.48-3.907,1.261l-1.412-2.748c1.487-1.059,3.681-1.639,5.849-1.639
				C378.064,222.48,380.459,224.396,380.459,228.506z M376.527,231.959v-1.387h-2.697c-1.841,0-2.42,0.681-2.42,1.588
				c0,0.983,0.831,1.639,2.218,1.639C374.938,233.799,376.073,233.194,376.527,231.959z"/>
			<path style="fill:#FF725E;" d="M384.011,217.54h3.933v18.704h-3.933V217.54z"/>
			<path style="fill:#FF725E;" d="M405.262,222.682v13.562h-3.73v-1.613c-1.034,1.185-2.546,1.814-4.21,1.814
				c-3.403,0-5.798-1.915-5.798-6.1v-7.663h3.933v7.083c0,2.269,1.008,3.277,2.747,3.277c1.815,0,3.126-1.16,3.126-3.655v-6.705
				H405.262z"/>
			<path style="fill:#FF725E;" d="M417.664,235.589c-0.807,0.58-1.991,0.856-3.201,0.856c-3.201,0-5.066-1.638-5.066-4.864v-5.571
				h-2.092v-3.024h2.092v-3.303h3.933v3.303h3.378v3.024h-3.378v5.521c0,1.159,0.63,1.79,1.688,1.79c0.58,0,1.16-0.177,1.588-0.504
				L417.664,235.589z"/>
		</g>
	</g>
</g>
<g id="Speech_Bubble_3">
	<g>
		<g>
			<g>
				<path style="fill:#FAFAFA;" d="M287.71,62.95h-58.303c-8.239,0-14.918,6.679-14.918,14.918v26.349
					c0,8.239,6.679,14.918,14.918,14.918h37.539c-0.02,7.61-5.38,13.768-5.38,13.768c12.543-2.023,17.538-9.304,19.454-13.768h6.689
					c8.239,0,14.918-6.679,14.918-14.918V77.868C302.628,69.629,295.949,62.95,287.71,62.95z"/>
			</g>
			<g>
				<g>
					<path style="fill:#263238;" d="M287.71,62.95c0,0,0.126-0.006,0.375,0c0.264,0.009,0.632,0.021,1.111,0.037
						c0.965,0.132,2.438,0.278,4.199,1.012c1.761,0.694,3.815,1.949,5.642,4.017c1.823,2.045,3.333,5.003,3.663,8.543
						c0.023,0.442,0.046,0.89,0.07,1.343c0.001,0.45,0.002,0.906,0.004,1.367c0.002,0.923,0.005,1.869,0.007,2.836
						c0.005,1.936,0.009,3.96,0.014,6.069c0.008,4.218,0.016,8.773,0.026,13.63c-0.003,1.216,0.03,2.442-0.06,3.716
						c-0.053,0.631-0.161,1.264-0.278,1.895c-0.17,0.621-0.288,1.262-0.539,1.867c-0.851,2.474-2.433,4.753-4.531,6.54
						c-2.119,1.754-4.77,3.006-7.643,3.379c-1.439,0.204-2.893,0.155-4.34,0.16c-1.455,0.001-2.925,0.003-4.409,0.004l0.214-0.141
						c-1.553,3.639-4.227,6.946-7.688,9.336c-1.726,1.2-3.634,2.175-5.643,2.945c-2.021,0.745-4.138,1.26-6.297,1.643l-0.66,0.117
						l0.432-0.528c1.483-1.814,2.754-3.949,3.719-6.241c0.965-2.296,1.562-4.807,1.593-7.364l0.257,0.257
						c-7.911,0.001-16.165,0.002-24.586,0.004c-2.494,0-4.972,0-7.435,0c-1.231,0-2.458,0-3.681,0l-1.831,0
						c-0.618-0.043-1.24-0.033-1.851-0.123c-2.447-0.315-4.813-1.193-6.804-2.593c-1.982-1.405-3.64-3.245-4.757-5.362
						c-1.108-2.12-1.704-4.476-1.75-6.821c-0.004-2.309-0.007-4.596-0.01-6.86c0.003-4.524,0.006-8.952,0.009-13.273
						c0.002-2.16,0.004-4.294,0.005-6.399c-0.01-2.136,0.429-4.249,1.272-6.149c1.67-3.821,4.891-6.738,8.541-8.093
						c1.822-0.694,3.75-0.984,5.621-0.98c1.854,0.003,3.673,0.005,5.457,0.008c3.567,0.006,6.99,0.011,10.258,0.017
						c13.06,0.035,23.631,0.063,30.956,0.083c3.643,0.021,6.476,0.038,8.416,0.049c0.951,0.011,1.68,0.02,2.189,0.026
						C287.458,62.932,287.71,62.95,287.71,62.95s-0.253,0.018-0.746,0.027c-0.509,0.006-1.238,0.015-2.189,0.026
						c-1.941,0.011-4.773,0.028-8.416,0.049c-7.325,0.02-17.896,0.048-30.956,0.083c-3.268,0.005-6.691,0.011-10.258,0.017
						c-1.784,0.003-3.603,0.005-5.457,0.008c-1.835,0.002-3.697,0.288-5.468,0.967c-3.542,1.324-6.663,4.164-8.274,7.872
						c-1.781,3.715-1.078,8.072-1.217,12.365c0.003,4.321,0.006,8.749,0.009,13.273c0.006,2.26,0.011,4.544,0.017,6.851
						c0.047,2.269,0.625,4.544,1.697,6.591c1.08,2.044,2.684,3.822,4.6,5.178c1.924,1.352,4.21,2.198,6.573,2.502
						c0.59,0.088,1.191,0.076,1.788,0.119l1.831,0c1.223,0,2.45,0,3.681,0c2.462,0,4.941,0,7.435,0
						c8.422,0.001,16.675,0.002,24.586,0.004l0.26,0l-0.003,0.257c-0.033,2.639-0.65,5.215-1.637,7.558
						c-0.994,2.345-2.271,4.494-3.81,6.374l-0.229-0.411c2.131-0.375,4.217-0.881,6.204-1.611c1.975-0.755,3.847-1.708,5.539-2.881
						c3.392-2.335,6.01-5.564,7.537-9.121l0.061-0.141l0.153,0c1.485,0.001,2.955,0.003,4.409,0.004
						c1.459-0.002,2.897,0.048,4.279-0.148c2.788-0.356,5.364-1.565,7.428-3.264c2.043-1.732,3.588-3.944,4.422-6.348
						c0.247-0.588,0.362-1.212,0.53-1.815c0.115-0.614,0.222-1.23,0.276-1.844c0.091-1.226,0.063-2.468,0.07-3.682
						c0.009-4.858,0.018-9.412,0.026-13.63c0.005-2.108,0.009-4.132,0.014-6.069c0.002-0.968,0.005-1.913,0.007-2.836
						c0.001-0.462,0.003-0.917,0.004-1.367c-0.021-0.446-0.041-0.885-0.061-1.32c-0.304-3.476-1.767-6.396-3.549-8.426
						c-1.785-2.053-3.802-3.314-5.536-4.022C289.815,62.736,287.681,63.068,287.71,62.95z"/>
				</g>
			</g>
		</g>
		<g>
			<g>
				<path style="fill:#FF725E;" d="M248.651,82.642v15.285h-2.184v-6.813h-8.778v6.813h-2.184V82.642h2.184v6.572h8.778v-6.572
					H248.651z"/>
				<path style="fill:#FF725E;" d="M251.857,92.141c0-3.45,2.555-5.896,6.026-5.896c3.472,0,6.005,2.446,6.005,5.896
					c0,3.45-2.533,5.917-6.005,5.917C254.412,98.058,251.857,95.591,251.857,92.141z M261.77,92.141
					c0-2.468-1.659-4.062-3.887-4.062c-2.227,0-3.908,1.594-3.908,4.062c0,2.467,1.681,4.083,3.908,4.083
					C260.111,96.224,261.77,94.608,261.77,92.141z"/>
				<path style="fill:#FF725E;" d="M266.79,81.725h2.096v16.202h-2.096V81.725z"/>
				<path style="fill:#FF725E;" d="M282.051,90.94v6.987h-1.987v-1.528c-0.699,1.048-1.987,1.659-3.8,1.659
					c-2.62,0-4.279-1.397-4.279-3.406c0-1.856,1.201-3.384,4.651-3.384h3.318v-0.415c0-1.769-1.026-2.795-3.101-2.795
					c-1.376,0-2.773,0.48-3.668,1.245l-0.874-1.572c1.201-0.96,2.927-1.485,4.782-1.485C280.26,86.245,282.051,87.774,282.051,90.94
					z M279.955,94.39v-1.616h-3.231c-2.074,0-2.664,0.808-2.664,1.79c0,1.157,0.961,1.878,2.555,1.878
					C278.186,96.442,279.431,95.721,279.955,94.39z"/>
			</g>
		</g>
	</g>
</g>
<g id="Speech_Bubble_2">
	<g>
		<g>
			<g>
				<path style="fill:#FAFAFA;" d="M83.686,294.625h53.417c4.937,0,8.939,4.002,8.939,8.939v22.501c0,4.937-4.002,8.939-8.939,8.939
					H99.486c-2.298,3.813-6.929,8.47-16.115,9.951c0,0,3.727-4.282,4.6-9.951h-4.285c-4.937,0-8.939-4.002-8.939-8.939v-22.501
					C74.747,298.627,78.749,294.625,83.686,294.625z"/>
			</g>
			<g>
				<g>
					<path style="fill:#263238;" d="M83.686,294.625c0.026,0.09-1.438-0.15-3.776,0.921c-1.145,0.543-2.461,1.492-3.509,3.017
						c-0.51,0.765-0.948,1.665-1.22,2.683c-0.291,1.021-0.333,2.138-0.304,3.342c0.015,4.803,0.032,10.628,0.052,17.313
						c0.002,0.836,0.004,1.686,0.006,2.549c0.005,0.863-0.017,1.745,0.065,2.604c0.205,1.724,0.93,3.448,2.165,4.811
						c1.205,1.388,2.925,2.365,4.807,2.757c0.945,0.194,1.923,0.164,2.94,0.166c1.009-0.001,2.029-0.003,3.06-0.004l0.262,0
						l-0.042,0.257c-0.568,3.509-2.196,7.028-4.642,10.073l-0.216-0.388c3.022-0.507,6.1-1.419,8.903-3.04
						c2.802-1.6,5.298-3.919,7.033-6.809l0.073-0.122h0.143c8.857-0.003,18.306-0.005,28.041-0.008c1.96,0,3.909,0,5.845,0
						c0.968,0,1.933,0,2.894,0c0.973,0.017,1.887-0.021,2.797-0.23c1.81-0.409,3.451-1.43,4.637-2.816
						c1.189-1.388,1.914-3.14,2.05-4.932c0.075-7.351,0.028-14.514,0.051-21.298c0.001-1.706,0.088-3.371-0.53-4.885
						c-0.535-1.522-1.528-2.842-2.743-3.826c-1.227-0.978-2.693-1.612-4.203-1.814c-0.749-0.115-1.513-0.097-2.287-0.099
						c-0.768-0.001-1.53-0.002-2.285-0.003c-6.04-0.011-11.668-0.022-16.807-0.032c-10.261-0.035-18.571-0.063-24.337-0.083
						c-2.858-0.021-5.084-0.038-6.617-0.049c-0.742-0.011-1.313-0.02-1.721-0.026C83.885,294.643,83.686,294.625,83.686,294.625
						s0.199-0.018,0.586-0.027c0.407-0.006,0.978-0.015,1.721-0.026c1.533-0.011,3.759-0.028,6.617-0.049
						c5.766-0.02,14.076-0.048,24.337-0.083c5.139-0.01,10.767-0.02,16.807-0.032c0.755-0.001,1.517-0.002,2.285-0.004
						c0.76,0,1.553-0.022,2.349,0.097c1.589,0.208,3.133,0.87,4.427,1.897c1.282,1.032,2.33,2.42,2.899,4.023
						c0.304,0.793,0.474,1.642,0.534,2.499c0.065,0.87,0.02,1.691,0.035,2.547c-0.01,6.803,0.049,13.906-0.022,21.339
						c-0.143,1.897-0.91,3.755-2.168,5.226c-1.255,1.468-2.993,2.552-4.912,2.986c-0.952,0.223-1.966,0.262-2.914,0.245
						c-0.961,0-1.926,0-2.894,0c-1.936,0-3.885,0-5.845,0c-9.735-0.003-19.184-0.005-28.041-0.008l0.216-0.122
						c-1.785,2.965-4.353,5.342-7.221,6.973c-2.871,1.653-6.007,2.573-9.072,3.081l-0.611,0.101l0.395-0.49
						c2.381-2.949,4.003-6.426,4.558-9.83l0.22,0.256c-1.031-0.002-2.051-0.003-3.06-0.004c-0.997-0.005-2.028,0.024-3.023-0.183
						c-1.974-0.417-3.772-1.449-5.028-2.906c-1.287-1.431-2.039-3.236-2.245-5.038c-0.083-0.912-0.054-1.785-0.056-2.647
						c0.002-0.863,0.004-1.712,0.006-2.549c0.02-6.685,0.038-12.51,0.052-17.313c-0.02-1.189,0.032-2.365,0.341-3.402
						c0.289-1.042,0.747-1.959,1.278-2.736c1.089-1.547,2.444-2.495,3.616-3.027c1.178-0.541,2.171-0.698,2.828-0.773
						C83.344,294.61,83.686,294.625,83.686,294.625z"/>
				</g>
			</g>
		</g>
	</g>
	<g>
		<path style="fill:#FF725E;" d="M100.049,309.319v11.632h-2.692v-4.768h-5.284v4.768h-2.692v-11.632h2.692v4.586h5.284v-4.586
			H100.049z"/>
		<path style="fill:#FF725E;" d="M111.329,317.211h-6.763c0.249,1.114,1.196,1.795,2.559,1.795c0.947,0,1.629-0.282,2.243-0.864
			l1.379,1.496c-0.831,0.947-2.077,1.445-3.689,1.445c-3.091,0-5.102-1.944-5.102-4.603c0-2.676,2.044-4.604,4.769-4.604
			c2.626,0,4.653,1.762,4.653,4.637C111.379,316.713,111.345,316.995,111.329,317.211z M104.532,315.699h4.403
			c-0.183-1.13-1.03-1.861-2.193-1.861C105.563,313.838,104.715,314.553,104.532,315.699z"/>
		<path style="fill:#FF725E;" d="M113.104,308.62h2.592v12.33h-2.592V308.62z"/>
		<path style="fill:#FF725E;" d="M118.105,308.62h2.592v12.33h-2.592V308.62z"/>
		<path style="fill:#FF725E;" d="M122.441,316.481c0-2.692,2.077-4.604,4.918-4.604c2.842,0,4.902,1.911,4.902,4.604
			c0,2.691-2.06,4.603-4.902,4.603C124.518,321.083,122.441,319.172,122.441,316.481z M129.636,316.481
			c0-1.546-0.98-2.477-2.277-2.477c-1.296,0-2.293,0.931-2.293,2.477c0,1.545,0.997,2.476,2.293,2.476
			C128.655,318.956,129.636,318.026,129.636,316.481z"/>
	</g>
</g>
<g id="Speech_Bubble_1">
	<g>
		<g>
			<g>
				<g>
					<path style="fill:#FAFAFA;" d="M159.858,121.435H71.284c-9.513,0-17.225,7.712-17.225,17.225v28.199
						c0,9.513,7.712,17.225,17.225,17.225h74.359c1.583,4.723,6.851,15.021,23.133,17.647c0,0-7.151-8.214-6.109-17.896
						c8.174-1.344,14.417-8.422,14.417-16.977v-28.199C177.083,129.147,169.371,121.435,159.858,121.435z"/>
				</g>
				<g>
					<g>
						<path style="fill:#263238;" d="M159.858,121.435c0,0,0.488,0.003,1.438,0.04c0.945,0.069,2.359,0.249,4.116,0.825
							c1.751,0.569,3.852,1.591,5.877,3.374c0.25,0.226,0.505,0.455,0.764,0.69c0.246,0.248,0.479,0.517,0.725,0.782
							c0.514,0.513,0.925,1.144,1.4,1.755c0.844,1.294,1.641,2.75,2.177,4.412c0.525,1.661,0.838,3.487,0.863,5.418
							c0.004,1.915,0.008,3.92,0.013,6.013c0.007,4.186,0.016,8.72,0.024,13.574c0.004,2.428,0.007,4.935,0.011,7.52
							c0.018,1.285-0.033,2.627-0.25,3.951c-0.243,1.32-0.589,2.65-1.156,3.913c-1.064,2.553-2.834,4.882-5.089,6.719
							c-1.131,0.92-2.407,1.673-3.753,2.313c-1.363,0.608-2.818,1.035-4.318,1.313l0.177-0.187
							c-0.603,6.079,1.913,12.546,6.07,17.722l0.384,0.478l-0.593-0.101c-4.747-0.808-9.65-2.364-13.891-5.346
							c-2.111-1.484-4.04-3.295-5.66-5.392c-1.595-2.113-2.909-4.487-3.779-7.056l0.235,0.169
							c-17.965,0.004-37.536,0.008-57.864,0.013c-3.234,0-6.449,0-9.643,0c-1.597,0-3.189,0-4.775,0
							c-1.574-0.011-3.187,0.049-4.769-0.229c-3.171-0.452-6.139-1.881-8.557-3.883c-1.197-1.023-2.253-2.194-3.151-3.472
							c-0.845-1.307-1.623-2.671-2.092-4.15c-0.301-0.716-0.417-1.487-0.632-2.226c-0.093-0.764-0.286-1.516-0.293-2.284
							c-0.114-1.541-0.04-3.026-0.061-4.528c0.001-2.994,0.002-5.958,0.004-8.892c0.001-2.934,0.003-5.836,0.004-8.706
							c0.001-1.435,0.002-2.862,0.002-4.28c0.018-1.423-0.043-2.817,0.063-4.244c0.163-2.84,1.093-5.577,2.546-7.928
							c0.703-1.195,1.604-2.244,2.542-3.233c0.995-0.931,2.034-1.814,3.198-2.493c2.293-1.401,4.869-2.276,7.47-2.502
							c1.308-0.09,2.586-0.089,3.851-0.08c1.267,0.001,2.524,0.002,3.77,0.004c9.967,0.011,19.252,0.022,27.729,0.032
							c16.945,0.035,30.659,0.063,40.151,0.083c4.731,0.021,8.408,0.038,10.916,0.049c1.239,0.011,2.186,0.02,2.839,0.026
							C159.53,121.417,159.858,121.435,159.858,121.435s-0.328,0.018-0.967,0.027c-0.652,0.006-1.6,0.015-2.839,0.026
							c-2.508,0.011-6.185,0.028-10.916,0.049c-9.493,0.02-23.206,0.048-40.151,0.083c-8.477,0.01-17.762,0.02-27.729,0.032
							c-1.246,0.001-2.503,0.002-3.77,0.004c-1.269-0.007-2.547-0.005-3.81,0.084c-2.534,0.225-5.041,1.082-7.271,2.449
							c-1.133,0.662-2.142,1.525-3.11,2.432c-0.91,0.965-1.788,1.986-2.469,3.15c-1.411,2.29-2.313,4.951-2.467,7.714
							c-0.103,1.37-0.041,2.798-0.057,4.211c0.001,1.418,0.001,2.845,0.002,4.28c0.001,2.87,0.003,5.773,0.004,8.706
							c0.001,2.934,0.002,5.898,0.004,8.892c0.007,2.992-0.149,6.036,0.963,8.871c0.454,1.436,1.213,2.759,2.032,4.027
							c0.873,1.239,1.898,2.375,3.06,3.369c2.349,1.941,5.228,3.328,8.305,3.765c1.527,0.269,3.098,0.211,4.689,0.221
							c1.586,0,3.178,0,4.775,0c3.194,0,6.409,0,9.643,0c20.328,0.005,39.9,0.009,57.864,0.013h0.178l0.057,0.169
							c0.849,2.513,2.136,4.844,3.697,6.917c1.587,2.058,3.477,3.837,5.548,5.296c4.162,2.934,8.992,4.478,13.689,5.285
							l-0.209,0.377c-2.153-2.654-3.788-5.6-4.887-8.673c-1.125-3.062-1.555-6.304-1.26-9.396l0.015-0.157l0.162-0.03
							c1.464-0.269,2.884-0.682,4.216-1.272c1.314-0.622,2.563-1.354,3.669-2.25c2.206-1.79,3.942-4.061,4.988-6.555
							c0.558-1.233,0.899-2.533,1.14-3.823c0.215-1.303,0.269-2.59,0.255-3.888c0.004-2.584,0.008-5.092,0.011-7.52
							c0.009-4.854,0.017-9.388,0.024-13.574c0.005-2.093,0.009-4.098,0.013-6.013c-0.016-1.904-0.316-3.702-0.824-5.343
							c-0.52-1.642-1.298-3.082-2.123-4.366c-0.466-0.605-0.868-1.232-1.373-1.742c-0.242-0.263-0.471-0.532-0.712-0.778
							c-0.255-0.233-0.505-0.462-0.751-0.687c-1.991-1.779-4.063-2.81-5.795-3.394c-1.738-0.59-3.141-0.791-4.081-0.88
							C160.346,121.482,159.858,121.435,159.858,121.435z"/>
					</g>
				</g>
			</g>
		</g>
		<g>
			<path style="fill:#263238;" d="M80.347,159.229l1.639-3.681c1.563,1.034,3.781,1.739,5.823,1.739
				c2.067,0,2.874-0.579,2.874-1.436c0-2.798-10.032-0.756-10.032-7.311c0-3.15,2.571-5.722,7.814-5.722
				c2.294,0,4.664,0.529,6.403,1.537l-1.538,3.706c-1.689-0.907-3.352-1.361-4.89-1.361c-2.092,0-2.849,0.706-2.849,1.588
				c0,2.697,10.007,0.681,10.007,7.185c0,3.075-2.571,5.696-7.814,5.696C84.885,161.169,82.011,160.388,80.347,159.229z"/>
			<path style="fill:#263238;" d="M110.47,153.229v7.588h-4.462v-1.765c-0.681,1.311-2.042,1.991-4.033,1.991
				c-3.277,0-5.092-1.84-5.092-4.209c0-2.521,1.84-4.084,6.075-4.084h2.723c-0.076-1.387-1.008-2.168-2.899-2.168
				c-1.311,0-2.773,0.454-3.706,1.185l-1.613-3.251c1.563-1.034,3.882-1.589,6.025-1.589
				C107.923,146.927,110.47,148.894,110.47,153.229z M105.68,156.431v-1.186h-2.067c-1.538,0-2.092,0.555-2.092,1.387
				c0,0.807,0.655,1.387,1.79,1.387C104.369,158.019,105.302,157.515,105.68,156.431z"/>
			<path style="fill:#263238;" d="M113.494,142.113h4.79v18.704h-4.79V142.113z"/>
			<path style="fill:#263238;" d="M135.777,147.155l-5.646,13.662h-4.94l-5.622-13.662h4.916l3.277,8.344l3.454-8.344H135.777z"/>
			<path style="fill:#263238;" d="M150.523,155.196h-9.932c0.403,1.387,1.588,2.193,3.353,2.193c1.336,0,2.219-0.379,3.151-1.186
				l2.52,2.622c-1.311,1.462-3.227,2.218-5.823,2.218c-4.864,0-8.016-2.999-8.016-7.083c0-4.108,3.201-7.033,7.512-7.033
				c4.033,0,7.311,2.571,7.311,7.084C150.599,154.364,150.548,154.818,150.523,155.196z M140.516,152.675h5.596
				c-0.252-1.438-1.311-2.345-2.798-2.345C141.827,150.33,140.794,151.238,140.516,152.675z"/>
		</g>
	</g>
</g>
<g id="Character_1_">
	<g>
		<g>
			<g>
				<g>
					<g>
						<path style="fill:#263238;" d="M303.885,265.3c-2.779,0.375-5.718-0.938-7.293-3.257c1.881,0.289,3.908,0.556,5.603-0.309
							c1.695-0.865,2.655-3.362,1.326-4.724c-1.038-1.063-2.747-0.88-4.228-0.989c-3.451-0.253-6.641-2.702-7.779-5.97
							c-1.254-3.603-0.107-7.532,0.344-11.321c1.308-10.994-3.919-22.519-13.052-28.777l-23.729-13.717
							c-8.606,11.014-11.289,25.859-9.505,39.722c1.784,13.863,7.665,26.895,14.735,38.953c2.059,3.513,4.254,7,7.16,9.852
							c2.906,2.853,6.614,5.051,10.664,5.471c1.068-3.33,0.389-7.169-1.757-9.93c6.412,0.409,12.953-1.934,17.647-6.321
							c-1.695-1.3-3.39-2.6-5.085-3.9C294.294,270.805,299.939,268.998,303.885,265.3z"/>
					</g>
				</g>
			</g>
			<g>
				<g>
					<g>
						<g>
							<g>
								<g>
									<g>
										<g>
											<g>
												<path style="fill:#FFBF9D;" d="M212.498,226.596c0.418-9.917,6.593-18.217,16.136-20.943l29.748-8.5
													c12.91-1.769,22.013,13.915,23.232,26.889c1.354,14.414,2.369,29.636,0.99,40.464
													c-2.775,21.773-19.297,25.042-19.297,25.042c-0.003-0.032,0.551,19.623,0.721,25.952l-15.131,31.638l-29.322-40.469
													l-7.146-79.808C212.411,226.491,212.478,227.09,212.498,226.596z"/>
											</g>
										</g>
									</g>
								</g>
							</g>
							<g>
								<g>
									<g>
										<g>
											<g>
												<g>
													<g>
														<g>
															<g>
																<g>
																	<g>
																		<g>
																			<g>
																				<g>
																					<g>
																						<g>
																							<g>
																								<g>
																									<g>
																										<g>
																											<path style="fill:#263238;" d="M272.707,243.002c0.097,1.466-1.064,2.757-2.593,2.887
																												c-1.526,0.129-2.844-0.951-2.941-2.417c-0.096-1.466,1.064-2.758,2.59-2.887
																												C271.292,240.454,272.611,241.537,272.707,243.002z"/>
																										</g>
																									</g>
																								</g>
																							</g>
																						</g>
																					</g>
																				</g>
																			</g>
																		</g>
																	</g>
																</g>
															</g>
														</g>
													</g>
												</g>
											</g>
										</g>
									</g>
								</g>
							</g>
							<g>
								<g>
									<g>
										<g>
											<g>
												<g>
													<g>
														<g>
															<g>
																<g>
																	<g>
																		<g>
																			<g>
																				<g>
																					<g>
																						<g>
																							<g>
																								<g>
																									<g>
																										<g>
																											<g>
																												<path style="fill:#263238;" d="M278.603,232.624c-0.333,0.373-2.486-1.12-5.476-1.02
																													c-2.988,0.057-5.136,1.663-5.471,1.307c-0.164-0.157,0.167-0.822,1.101-1.547
																													c0.919-0.721,2.503-1.445,4.366-1.494c1.863-0.047,3.451,0.59,4.373,1.264
																													C278.436,231.811,278.768,232.456,278.603,232.624z"/>
																											</g>
																										</g>
																									</g>
																								</g>
																							</g>
																						</g>
																					</g>
																				</g>
																			</g>
																		</g>
																	</g>
																</g>
															</g>
														</g>
													</g>
												</g>
											</g>
										</g>
									</g>
								</g>
							</g>
							<g>
								<g>
									<g>
										<g>
											<g>
												<g>
													<g>
														<g>
															<g>
																<g>
																	<g>
																		<g>
																			<g>
																				<g>
																					<g>
																						<g>
																							<g>
																								<g>
																									<g>
																										<g>
																											<path style="fill:#263238;" d="M246.326,243.003c0.097,1.466-1.064,2.757-2.593,2.886
																												c-1.525,0.128-2.844-0.952-2.941-2.417c-0.097-1.466,1.065-2.758,2.591-2.888
																												C244.91,240.454,246.229,241.537,246.326,243.003z"/>
																										</g>
																									</g>
																								</g>
																							</g>
																						</g>
																					</g>
																				</g>
																			</g>
																		</g>
																	</g>
																</g>
															</g>
														</g>
													</g>
												</g>
											</g>
										</g>
									</g>
								</g>
							</g>
							<g>
								<g>
									<g>
										<g>
											<g>
												<g>
													<g>
														<g>
															<g>
																<g>
																	<g>
																		<g>
																			<g>
																				<g>
																					<g>
																						<g>
																							<g>
																								<g>
																									<g>
																										<g>
																											<g>
																												<path style="fill:#263238;" d="M250.203,233.435c-0.335,0.373-2.49-1.12-5.478-1.02
																													c-2.988,0.057-5.135,1.662-5.471,1.306c-0.164-0.157,0.163-0.822,1.101-1.547
																													c0.919-0.722,2.503-1.445,4.366-1.495c1.863-0.047,3.451,0.591,4.374,1.265
																													C250.033,232.621,250.367,233.268,250.203,233.435z"/>
																											</g>
																										</g>
																									</g>
																								</g>
																							</g>
																						</g>
																					</g>
																				</g>
																			</g>
																		</g>
																	</g>
																</g>
															</g>
														</g>
													</g>
												</g>
											</g>
										</g>
									</g>
								</g>
							</g>
							<g>
								<g>
									<g>
										<g>
											<g>
												<g>
													<g>
														<g>
															<g>
																<g>
																	<g>
																		<g>
																			<g>
																				<g>
																					<g>
																						<g>
																							<g>
																								<g>
																									<g>
																										<g>
																											<g>
																												<path style="fill:#263238;" d="M260.223,256.655c-0.019-0.169,1.83-0.547,4.83-1.025
																													c0.761-0.103,1.479-0.277,1.591-0.801c0.163-0.558-0.182-1.37-0.579-2.248
																													c-0.775-1.826-1.586-3.74-2.437-5.745c-3.39-8.182-5.87-14.919-5.539-15.052
																													c0.331-0.134,3.348,6.389,6.738,14.571c0.817,2.017,1.599,3.941,2.343,5.782
																													c0.316,0.859,0.843,1.828,0.488,2.985c-0.188,0.577-0.735,1.008-1.221,1.155
																													c-0.485,0.165-0.914,0.186-1.291,0.22C262.12,256.753,260.239,256.824,260.223,256.655z"/>
																											</g>
																										</g>
																									</g>
																								</g>
																							</g>
																						</g>
																					</g>
																				</g>
																			</g>
																		</g>
																	</g>
																</g>
															</g>
														</g>
													</g>
												</g>
											</g>
										</g>
									</g>
								</g>
							</g>
							<g>
								<g>
									<g>
										<g>
											<g>
												<g>
													<g>
														<g>
															<g>
																<path style="fill:#FF9A6C;" d="M234.346,282.657c0,0,7.477,14.683,29.101,11.988l-0.139-5.098
																	C263.308,289.547,249.055,290.893,234.346,282.657z"/>
															</g>
														</g>
													</g>
												</g>
											</g>
										</g>
									</g>
								</g>
							</g>
							<g>
								<g>
									<g>
										<g>
											<g>
												<g>
													<g>
														<g>
															<g>
																<g>
																	<g>
																		<g>
																			<g>
																				<g>
																					<g>
																						<g>
																							<g>
																								<path style="fill:#263238;" d="M248.956,223.789c-0.27,0.822-3.267,0.529-6.762,1.059
																									c-3.507,0.461-6.304,1.575-6.792,0.86c-0.219-0.342,0.251-1.123,1.371-1.945
																									c1.109-0.821,2.896-1.623,4.995-1.923c2.099-0.295,4.038-0.02,5.331,0.46
																									C248.403,222.781,249.071,223.399,248.956,223.789z"/>
																							</g>
																						</g>
																					</g>
																				</g>
																			</g>
																		</g>
																	</g>
																</g>
															</g>
														</g>
													</g>
												</g>
											</g>
										</g>
									</g>
								</g>
							</g>
							<g>
								<g>
									<g>
										<g>
											<g>
												<g>
													<g>
														<g>
															<g>
																<g>
																	<g>
																		<g>
																			<g>
																				<g>
																					<g>
																						<g>
																							<g>
																								<path style="fill:#263238;" d="M277.367,223.505c-0.505,0.695-2.587,0.054-5.065,0.097
																									c-2.48-0.044-4.56,0.597-5.065-0.098c-0.222-0.339,0.088-1.029,0.984-1.7
																									c0.884-0.669,2.378-1.239,4.082-1.24c1.704,0.002,3.197,0.572,4.08,1.242
																									C277.28,222.476,277.589,223.166,277.367,223.505z"/>
																							</g>
																						</g>
																					</g>
																				</g>
																			</g>
																		</g>
																	</g>
																</g>
															</g>
														</g>
													</g>
												</g>
											</g>
										</g>
									</g>
								</g>
							</g>
						</g>
					</g>
					<g>
						<g>
							<g>
								<g>
									<g>
										<path style="fill:#FF9A6C;" d="M249.006,262.494c0.346-1.791,2.127-3.208,3.947-3.078c1.335,0.096,2.564,0.964,3.2,2.141
											c0.637,1.178,0.705,2.625,0.289,3.898l-0.055,0.282c-1.186,1.386-3.292,1.922-4.97,1.207
											C249.739,266.229,248.66,264.285,249.006,262.494z"/>
									</g>
								</g>
							</g>
						</g>
					</g>
					<g>
						<g>
							<g>
								<g>
									<g>
										<g>
											<g>
												<g>
													<g>
														<g>
															<g>
																<g>
																	<g>
																		<path style="fill:#263238;" d="M258.558,265.738c-0.009-0.454-3.029-0.223-5.375-2.64
																			c-2.353-2.412-2.266-5.657-2.69-5.648c-0.193-0.027-0.53,0.763-0.461,2.125c0.059,1.336,0.64,3.249,2.075,4.727
																			c1.439,1.474,3.245,2.014,4.492,2.02C257.87,266.338,258.592,265.943,258.558,265.738z"/>
																	</g>
																</g>
															</g>
														</g>
													</g>
												</g>
											</g>
										</g>
									</g>
								</g>
							</g>
						</g>
					</g>
				</g>
			</g>
			<g>
				<g>
					<path style="fill:#263238;" d="M222.499,192.078c3.347-5.317,11.253-10.868,17.442-11.949
						c7.055-1.233,11.307-0.024,15.946,4.212c0,0,3.61,3.483,6.994,4.141c3.383,0.658,6.212,0.1,10.249,2.165
						c5.513,2.82,7.93,10.192,10.485,15.834c3.175,7.011,7.699,13.462,9.769,20.874c2.071,7.412,0.969,16.519-5.277,21.016
						c1.071-5.679,1.963-11.928-0.376-17.068c0.268,2.066,0.212,4.132-0.378,6.151c-1.169-3.335-2.401-6.776-4.822-9.352
						c-2.284-2.429-5.442-3.88-7.795-6.241c-3.457-3.469-5.049-8.758-9.25-11.275c-4.37-2.619-9.898-1.313-14.993-1.289
						c-8.554,0.041-17.036-4.045-22.335-10.76l1.267-0.107C227.132,196.86,224.817,194.794,222.499,192.078z"/>
				</g>
			</g>
			<g>
				<g>
					<path style="fill:#263238;" d="M190.631,245.086c1.945-6.373,5.36-12.207,7.496-18.518c2.081-6.147,2.941-12.717,5.704-18.588
						c3.717-7.9,10.665-18.132,21.493-17.568l0.74,0.65c3.682-0.423,7.448-0.026,10.911,1.303l0.165,8.439l2.075,1.825
						c-0.87,1.674-1.693,3.295-2.491,4.885c-0.698,3.164-1.503,6.307-2.76,9.288c-1.232,2.921-2.938,5.693-5.194,7.898
						c-18.65,44.647-1.734,47.468-10.136,73.057l-5.285-14.649c-4.507-2.591-8.203-6.572-10.452-11.26
						c-0.311,1.547-0.621,3.094-0.932,4.641c-4.256-4.474-6.881-10.466-7.285-16.629c-0.808,1.485-1.616,2.97-2.424,4.454
						C188.419,258.867,188.685,251.459,190.631,245.086z"/>
				</g>
			</g>
			<g>
				<g>
					<g>
						<g>
							<g>
								<g>
									<g>
										<g>
											<g>
												<g>
													<g>
														<g>
															<g>
																<g>
																	<g>
																		<g>
																			<g>
																				<g>
																					<g>
																						<g>
																							<g>
																								<g>
																									<g>
																										<g>
																											<path style="fill:#FFBF9D;" d="M222.451,243.456c-0.29-0.727-13.77-5.16-13.542,9.026
																												c0.222,13.782,14.046,10.673,14.063,10.277C222.987,262.363,222.451,243.456,222.451,243.456z"/>
																										</g>
																									</g>
																								</g>
																							</g>
																						</g>
																					</g>
																				</g>
																			</g>
																		</g>
																	</g>
																</g>
															</g>
														</g>
													</g>
												</g>
											</g>
										</g>
									</g>
								</g>
							</g>
						</g>
					</g>
					<g>
						<g>
							<g>
								<g>
									<g>
										<g>
											<g>
												<g>
													<g>
														<g>
															<g>
																<g>
																	<g>
																		<g>
																			<g>
																				<g>
																					<g>
																						<g>
																							<g>
																								<g>
																									<g>
																										<g>
																											<g>
																												<path style="fill:#FF9A6C;" d="M218.619,257.62c-0.061-0.042-0.237,0.173-0.639,0.366
																													c-0.392,0.189-1.07,0.327-1.794,0.072c-1.466-0.506-2.736-2.794-2.851-5.277
																													c-0.059-1.253,0.181-2.453,0.606-3.45c0.402-1.017,1.04-1.733,1.77-1.877
																													c0.726-0.183,1.254,0.246,1.429,0.631c0.192,0.382,0.11,0.658,0.184,0.681
																													c0.039,0.034,0.291-0.237,0.169-0.803c-0.062-0.273-0.23-0.595-0.559-0.853
																													c-0.336-0.263-0.825-0.391-1.334-0.325c-1.062,0.094-1.999,1.089-2.467,2.184
																													c-0.526,1.101-0.825,2.45-0.759,3.857c0.142,2.775,1.613,5.347,3.616,5.884
																													c0.974,0.234,1.777-0.074,2.189-0.407C218.601,257.954,218.667,257.644,218.619,257.62z"/>
																											</g>
																										</g>
																									</g>
																								</g>
																							</g>
																						</g>
																					</g>
																				</g>
																			</g>
																		</g>
																	</g>
																</g>
															</g>
														</g>
													</g>
												</g>
											</g>
										</g>
									</g>
								</g>
							</g>
						</g>
					</g>
				</g>
				<g>
					<g>
						<g>
							<g>
								<g>
									<g>
										<g>
											<g>
												<g>
													<g>
														<path style="fill:#FFFFFF;" d="M217.123,260.1c-1.349-0.211-2.776,0.763-3.071,2.096
															c-0.295,1.333,0.589,2.818,1.901,3.195c1.312,0.377,2.85-0.412,3.308-1.699c0.458-1.286-0.234-2.869-1.489-3.407"/>
													</g>
												</g>
											</g>
										</g>
									</g>
								</g>
							</g>
						</g>
					</g>
					<g>
						<g>
							<g>
								<g>
									<g>
										<g>
											<g>
												<g>
													<g>
														<g>
															<path style="fill:#263238;" d="M217.772,260.286c-0.078,0.084,0.912,0.452,1.292,1.815
																c0.178,0.651,0.116,1.524-0.477,2.178c-0.56,0.652-1.595,1.077-2.546,0.81c-0.949-0.278-1.6-1.188-1.729-2.039
																c-0.155-0.869,0.255-1.642,0.752-2.099c1.046-0.954,2.079-0.74,2.059-0.852c0.007-0.034-0.215-0.136-0.65-0.134
																c-0.428,0.002-1.079,0.151-1.701,0.65c-0.613,0.471-1.193,1.418-1.034,2.516c0.131,1.056,0.887,2.187,2.129,2.562
																c1.252,0.341,2.492-0.215,3.164-1.041c0.717-0.847,0.728-1.957,0.46-2.681c-0.262-0.753-0.735-1.225-1.097-1.454
																C218.026,260.284,217.783,260.253,217.772,260.286z"/>
														</g>
													</g>
												</g>
											</g>
										</g>
									</g>
								</g>
							</g>
						</g>
					</g>
				</g>
			</g>
			<g>
				<g>
					<g>
						<g>
							<path style="fill:#455A64;" d="M238.117,206.083c-0.274,0.109-1.547-4.562-5.387-8.896c-3.778-4.392-8.233-6.283-8.089-6.54
								c0.04-0.099,1.201,0.231,2.907,1.164c1.702,0.926,3.906,2.533,5.869,4.776c1.956,2.248,3.251,4.648,3.938,6.459
								C238.051,204.861,238.22,206.056,238.117,206.083z"/>
						</g>
					</g>
				</g>
			</g>
		</g>
		<g>
			<g>
				<path style="fill:#455A64;" d="M285.393,306.16c-1.309-0.337,15.183,76.887,15.183,76.887l26.958,39.038h25.818l7.418-5.737
					c0,0-13.784-27.522-20.294-37.435C333.967,369,308.427,312.084,285.393,306.16z"/>
			</g>
			<g>
				<path style="fill:#455A64;" d="M285.393,306.16l-20.925-4.203c-5.012,19.185-31.589,17.495-46,0l-11.534,3.137
					c-15.427,4.537-18.997,6.262-18.997,6.262c-11.226,4.397-18.218,16.457-20.984,24.813l27.531,76.339l-7.007,46.004l118.666-0.13
					l-10.796-39.004l2.359-12.547l3.47-10.881c3.482-11.173-1.204-31.664-4.623-42.856l-3.721-16.247L285.393,306.16z"/>
			</g>
			<g>
				<g style="opacity:0.3;">
					<path d="M201.961,338.452c0,0,1.335,16.02,0,24.03c-1.335,8.01-4.556,47.443-4.556,47.443l40.05,11.928l22.001-7.672
						l-12.762,30.801l-23.39,3.35l-26.467-28.324l-6.822-20.349l3.763-10.951L201.961,338.452z"/>
				</g>
				<g>
					<path style="fill:#FFBF9D;" d="M284.059,433.285l-21.317-10.635l3.469-2.004l6.641,2.125c0.043,0.301,6.184,3.044,8.464,2.405
						c2.067-0.578,3.206-1.999,3.531-2.616c0.325-0.617-7.843-4.792-7.843-4.792l-10.273-5.26l-10.986,2.888l-19.617,12.242
						l-14.713-4.581c-0.362,0.617-5.621,23.861-5.621,23.861s14.446,4.729,22.748,4.033c5.635-0.473,10.474-4.395,13.284-7.181
						l2.52,1.346c0,0,9.221,4.494,13.142,4.671c3.921,0.178,1.378-3.503,1.378-3.503l-6.878-4.462l-2.789-2.461l4.242,1.507
						c0,0,7.193,3.687,8.65,4.092c1.872,0.52,3.353,0.106,4.057-2.497c0.703-2.602-14.019-11.231-14.019-11.231l14.33,6.007
						c1.336,0.561,2.797,0.809,4.232,0.612c1.208-0.166,2.442-0.644,2.931-1.833C284.711,433.376,284.059,433.285,284.059,433.285z"
						/>
				</g>
				<g>
					<g>
						<path style="fill:#FF9A6C;" d="M250.644,424.597c-0.039-0.041,0.451-0.598,1.449-1.251c0.991-0.653,2.528-1.339,4.335-1.615
							c1.809-0.269,3.48-0.065,4.619,0.267c1.146,0.329,1.778,0.718,1.753,0.768c-0.034,0.08-0.71-0.183-1.839-0.41
							c-1.126-0.231-2.723-0.367-4.456-0.11c-1.731,0.265-3.218,0.865-4.225,1.417C251.269,424.213,250.7,424.664,250.644,424.597z"
							/>
					</g>
				</g>
				<g>
					<g>
						<path style="fill:#FF9A6C;" d="M264.684,432.664c-0.045,0.061-0.755-0.409-1.895-1.159c-1.141-0.737-2.731-1.776-4.683-2.399
							c-1.949-0.616-3.865-0.516-5.127-0.102c-1.279,0.401-1.918,0.995-1.976,0.917c-0.039-0.025,0.529-0.744,1.855-1.265
							c1.304-0.531,3.347-0.699,5.405-0.047c2.048,0.656,3.643,1.776,4.739,2.595C264.096,432.038,264.724,432.609,264.684,432.664z
							"/>
					</g>
				</g>
				<g>
					<g>
						<path style="fill:#FF9A6C;" d="M256.09,435.801c-0.05,0.069-0.454-0.187-1.157-0.434c-0.7-0.25-1.723-0.44-2.847-0.32
							c-1.124,0.127-2.081,0.534-2.71,0.93c-0.633,0.393-0.971,0.73-1.035,0.674c-0.046-0.035,0.2-0.472,0.823-0.975
							c0.615-0.503,1.644-1.01,2.865-1.146c1.222-0.132,2.336,0.14,3.045,0.498C255.792,435.384,256.127,435.757,256.09,435.801z"/>
					</g>
				</g>
				<g>
					<g>
						<path style="fill:#FF9A6C;" d="M261.847,442.141c-0.086,0.111-1.343-0.732-2.674-2.028c-1.335-1.293-2.215-2.524-2.107-2.613
							c0.113-0.095,1.156,0.967,2.47,2.239C260.846,441.014,261.939,442.025,261.847,442.141z"/>
					</g>
				</g>
			</g>
			<g>
				<path style="fill:#455A64;" d="M204.121,351.561c5.916-31.492-28.281-40.639-36.472-17.423c0,0-8.19,23.674-11.648,36.851
					c-3.222,12.275-7.004,28.038-9.471,43.237c-1.709,10.526,1.162,23.005,7.129,25.537c15.587,6.617,77.443,16.514,77.443,16.514
					l3.834-31.526l-45.839-10.84c0,0,1.909-5.163-1.62-5.641l11.057-38.234L204.121,351.561z"/>
			</g>
			<g>
				<g>
					<path style="fill:#263238;" d="M187.477,408.272c0.006-0.011,0.145,0.055,0.412,0.196c0.134,0.07,0.303,0.154,0.475,0.3
						c0.182,0.132,0.389,0.291,0.577,0.523c0.396,0.433,0.758,1.135,0.766,2.012c0.01,0.872-0.287,1.85-0.884,2.797l-0.089-0.218
						c3.726,0.669,8.851,1.785,14.879,3.239c6.031,1.475,12.98,3.174,20.379,4.984c3.816,0.903,7.522,1.738,10.991,2.402
						l0.232,0.044l-0.029,0.233c-1.14,9.066-2.128,16.927-2.838,22.577c-0.367,2.762-0.662,4.982-0.872,6.562
						c-0.106,0.73-0.191,1.312-0.255,1.753c-0.063,0.398-0.103,0.605-0.118,0.603c-0.015-0.002-0.004-0.212,0.03-0.613
						c0.043-0.444,0.101-1.029,0.173-1.763c0.175-1.585,0.421-3.81,0.726-6.58c0.665-5.655,1.589-13.524,2.656-22.599L234.89,425
						c-3.484-0.655-7.198-1.485-11.018-2.389c-7.419-1.766-14.349-3.566-20.366-5.049c-6.015-1.494-11.118-2.667-14.823-3.405
						l-0.205-0.041l0.117-0.177c0.576-0.877,0.888-1.822,0.897-2.636c0.013-0.822-0.301-1.485-0.663-1.916
						c-0.17-0.23-0.363-0.392-0.533-0.53c-0.159-0.152-0.319-0.245-0.445-0.324C187.6,408.373,187.472,408.284,187.477,408.272z"/>
				</g>
			</g>
			<g>
				<g>
					<path style="fill:#263238;" d="M201.491,361.099c0.017,0.005-0.015,0.175-0.092,0.494c-0.098,0.376-0.217,0.834-0.361,1.388
						c-0.357,1.276-0.838,2.993-1.422,5.079c-1.223,4.282-2.946,10.186-4.881,16.698c-1.935,6.514-3.715,12.403-5.028,16.657
						c-0.649,2.067-1.184,3.767-1.581,5.031c-0.182,0.543-0.332,0.992-0.455,1.36c-0.11,0.309-0.176,0.469-0.193,0.464
						c-0.017-0.005,0.015-0.175,0.092-0.494c0.098-0.375,0.217-0.834,0.361-1.388c0.357-1.276,0.838-2.992,1.422-5.078
						c1.223-4.282,2.947-10.187,4.882-16.702c1.935-6.513,3.714-12.401,5.027-16.655c0.649-2.066,1.184-3.767,1.581-5.031
						c0.182-0.543,0.332-0.992,0.455-1.36C201.408,361.254,201.473,361.094,201.491,361.099z"/>
				</g>
			</g>
			<g>
				<g>
					<path style="fill:#263238;" d="M203.255,341.422c-0.112,0.01-0.054-1.986-0.881-5.036c-0.8-3.025-2.7-7.116-6.206-10.423
						c-3.511-3.303-7.71-4.956-10.777-5.574c-3.094-0.643-5.083-0.466-5.079-0.578c-0.002-0.029,0.489-0.093,1.382-0.111
						c0.893-0.02,2.191,0.048,3.769,0.328c3.135,0.534,7.462,2.168,11.063,5.556c3.596,3.391,5.485,7.613,6.205,10.71
						c0.374,1.558,0.519,2.85,0.553,3.743C203.319,340.928,203.285,341.422,203.255,341.422z"/>
				</g>
			</g>
			<g>
				<g>
					<path style="fill:#263238;" d="M187.477,408.67c-0.023,0.081-0.706-0.11-1.823-0.172c-1.109-0.067-2.677,0.054-4.242,0.7
						c-1.566,0.647-2.762,1.667-3.502,2.496c-0.748,0.831-1.097,1.448-1.171,1.407c-0.053-0.024,0.182-0.714,0.888-1.643
						c0.694-0.924,1.923-2.056,3.586-2.742c1.663-0.686,3.332-0.751,4.475-0.585C186.845,408.293,187.498,408.615,187.477,408.67z"
						/>
				</g>
			</g>
			<g>
				<g>
					<path style="fill:#263238;" d="M188.653,413.102c0.013,0.158-1.815,0.317-3.855,1.192c-2.05,0.853-3.439,2.052-3.542,1.933
						c-0.101-0.082,1.189-1.514,3.34-2.413C186.738,412.899,188.665,412.972,188.653,413.102z"/>
				</g>
			</g>
			<g>
				<g>
					<path style="fill:#263238;" d="M291.384,339.648c0.016-0.008,0.14,0.198,0.361,0.599c0.241,0.45,0.555,1.036,0.946,1.765
						c0.41,0.768,0.906,1.71,1.416,2.836c0.51,1.125,1.159,2.378,1.73,3.827c0.596,1.438,1.274,3.003,1.871,4.735
						c0.305,0.863,0.654,1.744,0.95,2.674c0.291,0.932,0.59,1.89,0.897,2.872c1.143,3.954,2.212,8.369,2.823,13.09
						c0.607,4.721,0.74,9.266,0.562,13.384c-0.17,2.055-0.268,4.013-0.58,5.822c-0.139,0.906-0.235,1.787-0.399,2.621
						c-0.176,0.831-0.345,1.629-0.507,2.393c-0.282,1.534-0.728,2.875-1.056,4.067c-0.175,0.593-0.319,1.151-0.488,1.652
						c-0.181,0.493-0.347,0.947-0.499,1.361c-0.292,0.775-0.526,1.397-0.706,1.875c-0.167,0.426-0.262,0.647-0.279,0.64
						c-0.017-0.007,0.046-0.24,0.181-0.677c0.156-0.485,0.359-1.117,0.612-1.904c0.138-0.417,0.289-0.874,0.454-1.37
						c0.155-0.504,0.284-1.064,0.445-1.658c0.299-1.195,0.719-2.535,0.976-4.065c0.15-0.761,0.307-1.557,0.471-2.385
						c0.153-0.831,0.238-1.708,0.367-2.609c0.292-1.799,0.373-3.747,0.529-5.788c0.151-4.092,0.003-8.602-0.599-13.293
						c-0.607-4.69-1.655-9.082-2.767-13.023c-0.298-0.98-0.589-1.935-0.871-2.865c-0.286-0.928-0.626-1.808-0.921-2.67
						c-0.576-1.731-1.232-3.298-1.804-4.74c-0.547-1.452-1.171-2.712-1.654-3.846c-0.483-1.135-0.952-2.088-1.333-2.868
						c-0.354-0.747-0.639-1.347-0.858-1.807C291.461,339.879,291.368,339.657,291.384,339.648z"/>
				</g>
			</g>
			<g>
				<g>
					<path style="fill:#263238;" d="M292.656,332.743c0.137,0.074-0.57,1.49-0.929,3.374c-0.378,1.881-0.256,3.459-0.411,3.476
						c-0.129,0.031-0.495-1.595-0.1-3.576C291.596,334.035,292.548,332.667,292.656,332.743z"/>
				</g>
			</g>
			<g style="opacity:0.3;">
				<g>
					<path d="M305.969,361.705c-1.287-5.071-3.705-9.77-6.105-14.419c-1.95-3.778-3.899-7.556-5.849-11.334
						c-0.372-0.721-0.845-1.521-1.641-1.68c-0.971-0.194-1.866,0.764-1.987,1.747c-0.12,0.983,0.3,1.944,0.714,2.843
						c3.368,7.321,6.394,15.481,8.844,23.159c2.45,7.677,4.212,17.934,2.843,25.876
						C307.452,380.132,308.197,370.485,305.969,361.705z"/>
				</g>
			</g>
			<g>
				<g>
					<path style="fill:#263238;" d="M269.56,382.497c0.018,0.004-0.002,0.161-0.056,0.459c-0.06,0.296-0.127,0.739-0.274,1.294
						c-0.263,1.118-0.74,2.718-1.521,4.624c-1.533,3.8-4.534,8.825-9.301,12.981c-4.767,4.16-10.154,6.45-14.127,7.453
						c-1.994,0.514-3.643,0.77-4.787,0.878c-0.57,0.07-1.018,0.077-1.319,0.096c-0.302,0.013-0.461,0.011-0.462-0.007
						c-0.004-0.042,0.626-0.117,1.755-0.29c1.129-0.17,2.755-0.479,4.716-1.033c3.909-1.084,9.187-3.394,13.881-7.49
						c4.694-4.093,7.7-9.008,9.305-12.733c0.815-1.867,1.342-3.436,1.664-4.532C269.359,383.102,269.519,382.488,269.56,382.497z"/>
				</g>
			</g>
		</g>
		<g>
			<g>
				<path style="fill:#FFFFFF;" d="M392.848,397.878l-2.622-2.932c0,0-19.17,8.619-25.689,12.267
					c-9.402,5.261-10.602,7.941-10.602,7.941l-1.245,5.99l4.426,2.996L392.848,397.878z"/>
				<path style="fill:#263238;" d="M357.117,424.17l-0.015-0.01l-4.44-3.005l0.004-0.017l1.244-5.99
					c0.014-0.033,0.32-0.695,1.783-2.012c1.347-1.212,3.973-3.228,8.831-5.946c6.445-3.607,25.5-12.182,25.692-12.268l0.017-0.008
					l0.012,0.014l2.641,2.953l-0.022,0.017L357.117,424.17z M352.718,421.132l4.397,2.978l35.696-26.235l-2.592-2.898
					c-0.663,0.299-19.311,8.698-25.67,12.258c-4.85,2.714-7.471,4.726-8.816,5.935c-1.458,1.311-1.773,1.989-1.776,1.995
					L352.718,421.132z"/>
			</g>
			<g>
				<path style="fill:#FFFFFF;" d="M356.278,423.573c0,0-1.307-12.751-9.609-16.361c-8.302-3.61-33.621,9.352-34.163,9.532
					c-0.541,0.18-51.909,33.422-51.909,33.422l2.855,3.499l46.689-5.665L356.278,423.573z"/>
			</g>
			<g>
				<path style="fill:#E0E0E0;" d="M262.306,451.591l50.731-32.972c0,0,26.903-13.59,34.392-9.229
					c7.489,4.36,6.684,12.717,6.684,12.717l-48.9,28.053l-40.508,4.915L262.306,451.591z"/>
			</g>
			<g>
				<path style="fill:#FFFFFF;" d="M353.751,417.699c0,0-4.161-6.834-22.047-3.764c-10.712,1.838-19.817,5.432-19.817,5.432
					l-48.507,33.095l1.682,1.959l76.99-28.685l12.085-2.395l0.997-2.12L353.751,417.699z"/>
			</g>
			<g>
				<polygon style="fill:#FF725E;" points="259.457,456.356 304.05,426.33 349.237,419.492 356.075,422.762 393.799,396.007 
					395.614,398.088 335.658,446.513 322.802,443.415 308.793,453.282 260.597,458.382 				"/>
			</g>
			<g>
				<g>
					<path style="fill:#263238;" d="M260.597,458.382c0,0-0.1-0.149-0.293-0.476c-0.198-0.342-0.487-0.841-0.884-1.529l-0.02-0.034
						l0.033-0.023c4.913-3.384,21.146-14.38,44.505-30.156l0.037-0.025l0.045-0.007c13.151-2.003,28.47-4.336,45.18-6.882
						l0.074-0.011l0.068,0.032c2.131,1.018,4.472,2.135,6.839,3.266l-0.251,0.021c11.735-8.327,24.488-17.377,37.718-26.766
						l0.192-0.136l0.155,0.178c0.155,0.178,0.323,0.371,0.491,0.564c0.443,0.508,0.885,1.016,1.323,1.517l0.186,0.213l-0.228,0.168
						c-13.402,9.863-26.291,19.348-38.312,28.194l-0.126,0.093l-0.137-0.074c-2.549-1.369-5.05-2.713-7.514-4.037l0.153,0.026
						c-16.467,2.68-31.442,5.118-44.347,7.218l0.074-0.028c-13.834,8.856-25.059,16.043-32.841,21.025
						c-3.883,2.471-6.904,4.393-8.969,5.707c-1.021,0.642-1.802,1.134-2.343,1.474C260.876,458.225,260.597,458.382,260.597,458.382
						s0.258-0.189,0.778-0.535c0.534-0.351,1.305-0.858,2.313-1.521c2.052-1.334,5.054-3.286,8.912-5.795
						c7.76-5.016,18.953-12.252,32.748-21.17l0.034-0.022l0.04-0.007c12.901-2.127,27.87-4.596,44.332-7.31l0.081-0.013l0.073,0.039
						c2.465,1.321,4.969,2.661,7.519,4.027l-0.263,0.019c12.016-8.853,24.9-18.346,38.296-28.216l-0.042,0.381
						c-0.437-0.501-0.879-1.009-1.322-1.517c-0.168-0.193-0.337-0.386-0.491-0.564l0.347,0.041
						c-13.235,9.381-25.993,18.424-37.732,26.746l-0.119,0.085l-0.132-0.063c-2.366-1.133-4.706-2.254-6.835-3.274l0.141,0.021
						c-16.716,2.513-32.039,4.816-45.194,6.794l0.081-0.032c-23.403,15.711-39.697,26.616-44.68,29.896l0.013-0.056
						c0.381,0.697,0.658,1.203,0.848,1.549C260.522,458.219,260.597,458.382,260.597,458.382z"/>
				</g>
			</g>
			<g>
				<g>
					<path style="fill:#263238;" d="M303.544,427.06c0.121-0.078,0.568,0.398,1,1.064c0.432,0.666,0.684,1.269,0.563,1.347
						c-0.121,0.078-0.568-0.398-1-1.064C303.676,427.742,303.424,427.138,303.544,427.06z"/>
				</g>
			</g>
			<g>
				<g>
					<path style="fill:#263238;" d="M350.008,422.63c0.011,0.014-0.121,0.137-0.383,0.358c-0.311,0.254-0.694,0.567-1.16,0.948
						c-1.082,0.853-2.545,2.005-4.325,3.408c-3.665,2.86-8.751,6.782-14.387,11.088c-2.834,2.134-5.476,4.245-7.992,6.01
						c-2.51,1.742-4.78,3.318-6.71,4.658c-1.872,1.277-3.411,2.327-4.549,3.103c-0.503,0.33-0.916,0.601-1.252,0.822
						c-0.29,0.183-0.447,0.272-0.457,0.258c-0.01-0.015,0.126-0.132,0.396-0.343c0.321-0.242,0.715-0.54,1.195-0.902
						c1.114-0.81,2.619-1.904,4.452-3.236c1.91-1.365,4.157-2.97,6.641-4.746c2.5-1.785,5.133-3.908,7.966-6.041
						c5.635-4.305,10.754-8.179,14.475-10.963c1.821-1.348,3.317-2.456,4.424-3.276c0.489-0.349,0.892-0.636,1.219-0.87
						C349.844,422.711,349.997,422.616,350.008,422.63z"/>
				</g>
			</g>
			<g>
				<g>
					<path style="fill:#FFBF9D;" d="M365.927,424.379c-1.22,1.668-4.654,7.141-4.654,7.141s-0.991,5.483-2.707,9.774
						c-1.717,4.291-6.695,9.441-13.561,10.299c-6.866,0.858-18.326-3.539-18.326-3.539l-14.725-5.487c0,0-3.309-2.824-0.562-4.541
						c0,0-2.434-2.74,2.373-3.942c4.806-1.202,18.023,4.978,18.023,4.978s-5.493-4.635-8.754-5.836
						c-3.261-1.202-1.888-3.948,0.858-4.291c2.746-0.343,4.783,0.672,9.418,2.217c4.635,1.545,8.777,4.649,10.665,4.649
						c1.888,0,0.711-3.06-1.03-4.259c-6.95-4.79-4.635-6.383-4.635-6.383s0.687-2.403,4.291-0.858
						c3.605,1.545,9.842,5.544,9.842,5.544c3.984-0.262,5.264-1.254,6.17-3.609c0.529-1.376,1.466-2.558,2.613-3.485l1.757-1.419
						c1.899-1.534,4.466,0.828,3.087,2.843C366.026,424.241,365.977,424.31,365.927,424.379z"/>
				</g>
				<g>
					<g>
						<path style="fill:#FF9A6C;" d="M329.232,446.269c-0.06,0.131-4.196-1.652-9.236-3.981c-5.042-2.33-9.079-4.324-9.018-4.454
							c0.06-0.131,4.195,1.652,9.237,3.981C325.254,444.145,329.292,446.139,329.232,446.269z"/>
					</g>
				</g>
				<g>
					<g>
						<path style="fill:#FF9A6C;" d="M336.307,443.073c-0.09,0.112-1.363-0.753-2.843-1.933c-1.481-1.18-2.608-2.228-2.519-2.341
							c0.09-0.112,1.362,0.753,2.843,1.933C335.269,441.913,336.397,442.961,336.307,443.073z"/>
					</g>
				</g>
				<g>
					<g>
						<path style="fill:#FF9A6C;" d="M353.962,435.667c0.059-0.015,0.225,0.334,0.173,0.94c-0.044,0.591-0.371,1.446-1.144,2.017
							c-0.777,0.565-1.691,0.619-2.268,0.484c-0.593-0.133-0.876-0.396-0.844-0.448c0.036-0.072,0.363,0.057,0.894,0.083
							c0.522,0.032,1.277-0.078,1.91-0.539c0.63-0.465,0.962-1.151,1.089-1.659C353.907,436.03,353.882,435.679,353.962,435.667z"/>
					</g>
				</g>
				<g>
					<g>
						<path style="fill:#FF9A6C;" d="M344.567,444.121c0.057,0.023,0.02,0.317-0.252,0.697c-0.266,0.379-0.801,0.798-1.493,0.981
							c-0.693,0.181-1.365,0.079-1.782-0.12c-0.424-0.198-0.601-0.435-0.563-0.483c0.075-0.122,1.011,0.44,2.212,0.099
							C343.903,445.001,344.442,444.052,344.567,444.121z"/>
					</g>
				</g>
				<g>
					<g>
						<path style="fill:#FF9A6C;" d="M335.995,448.531c0.084,0.113-0.666,0.632-1.708,0.472c-1.044-0.151-1.61-0.865-1.497-0.95
							c0.101-0.111,0.709,0.317,1.573,0.435C335.224,448.628,335.931,448.396,335.995,448.531z"/>
					</g>
				</g>
				<g>
					<g>
						<path style="fill:#FF9A6C;" d="M358.266,427.021c0.052,0.008,0.018,0.493-0.414,1.116c-0.425,0.62-1.282,1.282-2.366,1.62
							c-1.079,0.344-2.141,0.347-2.86,0.142c-0.73-0.194-1.072-0.549-1.032-0.591c0.047-0.071,0.429,0.145,1.105,0.23
							c0.67,0.099,1.635,0.039,2.627-0.276c0.997-0.313,1.786-0.856,2.239-1.355C358.022,427.408,358.181,426.992,358.266,427.021z"
							/>
					</g>
				</g>
			</g>
			<g>
				<g>
					<path style="fill:#263238;" d="M353.516,417.17c-0.008,0.003-0.046-0.068-0.113-0.209c-0.077-0.168-0.171-0.375-0.288-0.631
						c-0.249-0.556-0.641-1.368-1.235-2.362c-0.617-0.972-1.45-2.154-2.759-3.15c-0.652-0.498-1.426-0.921-2.291-1.264
						c-0.872-0.329-1.842-0.541-2.874-0.676c-1.032-0.13-2.135-0.16-3.274-0.121c-0.565,0.062-1.146,0.066-1.731,0.177
						c-0.584,0.114-1.184,0.202-1.787,0.342c-2.417,0.543-4.944,1.402-7.584,2.371c-5.273,1.964-10.981,4.506-16.901,7.439
						l0.019-0.011c-1.785,1.117-3.668,2.295-5.579,3.491c-12.513,7.859-23.776,15.074-31.876,20.375
						c-4.015,2.65-7.275,4.801-9.568,6.315c-1.101,0.734-1.968,1.312-2.594,1.729c-0.279,0.179-0.503,0.324-0.682,0.439
						c-0.155,0.096-0.237,0.142-0.243,0.135c-0.005-0.007,0.067-0.068,0.212-0.179c0.171-0.126,0.386-0.285,0.653-0.482
						c0.612-0.436,1.461-1.042,2.539-1.81c2.221-1.549,5.45-3.77,9.48-6.454c8.051-5.382,19.286-12.648,31.802-20.509
						c1.913-1.195,3.797-2.373,5.583-3.489l0.01-0.006l0.01-0.005c5.946-2.936,11.667-5.462,16.975-7.409
						c2.657-0.959,5.202-1.807,7.653-2.339c0.611-0.137,1.224-0.223,1.818-0.333c0.595-0.108,1.199-0.109,1.778-0.166
						c1.161-0.029,2.274,0.012,3.329,0.157c1.053,0.148,2.046,0.378,2.942,0.729c0.888,0.366,1.681,0.815,2.345,1.338
						c1.332,1.048,2.155,2.27,2.755,3.268C353.178,415.923,353.516,417.17,353.516,417.17z"/>
				</g>
			</g>
			<g>
				<g>
					<path style="fill:#263238;" d="M353.309,418.626c-0.016,0.009-0.118-0.117-0.298-0.36c-0.173-0.249-0.426-0.614-0.833-1.018
						c-0.775-0.834-2.109-1.857-3.987-2.67c-1.878-0.78-4.27-1.469-6.955-1.644c-2.712-0.122-5.705,0.034-8.814,0.449
						c-6.226,0.868-11.676,2.653-15.522,4.111c-1.925,0.738-3.46,1.393-4.514,1.862c-0.48,0.215-0.88,0.394-1.213,0.544
						c-0.279,0.122-0.427,0.183-0.436,0.167c-0.017-0.032,0.531-0.365,1.561-0.893c1.031-0.527,2.55-1.237,4.467-2.022
						c3.83-1.553,9.3-3.407,15.586-4.284c3.139-0.419,6.165-0.563,8.913-0.412c2.768,0.208,5.168,0.944,7.077,1.786
						c1.902,0.874,3.242,1.975,3.988,2.871c0.393,0.435,0.625,0.827,0.771,1.097C353.253,418.475,353.325,418.617,353.309,418.626z"
						/>
				</g>
			</g>
			<g>
				<g>
					<path style="fill:#263238;" d="M313.037,424.874c-0.119,0.104-0.955-0.832-1.588-2.194c-0.663-1.349-0.867-2.586-0.711-2.614
						c0.129-0.024,0.536,1.074,1.181,2.389C312.537,423.782,313.137,424.789,313.037,424.874z"/>
				</g>
			</g>
		</g>
	</g>
</g>
<g id="Device">
	<g>
		<g>
			<g>
				<g>
					<g>
						<g>
							<g>
								<g>
									<path style="fill:#E0E0E0;" d="M46.561,384.733l15.064,73.95H166.05h26.321c1.442,0,2.611-1.169,2.611-2.612l0,0
										c0-1.442-1.169-2.611-2.611-2.611H166.05l-13.965-68.775c-0.268-1.319-1.421-2.272-2.767-2.287l-99.927-1.091
										C47.571,381.288,46.198,382.951,46.561,384.733z"/>
								</g>
							</g>
						</g>
					</g>
				</g>
			</g>
			<g>
				<g>
					<g>
						<g>
							<g>
								<g>
									<g>
										<path style="fill:#263238;" d="M46.561,384.733c0,0-0.016-0.074-0.041-0.223c-0.024-0.147-0.044-0.375-0.013-0.672
											c0.053-0.572,0.363-1.532,1.383-2.161c0.25-0.154,0.545-0.266,0.864-0.342c0.322-0.072,0.673-0.067,1.029-0.064
											c0.717,0.005,1.502,0.011,2.353,0.018c1.702,0.014,3.668,0.03,5.883,0.049c8.869,0.084,21.743,0.206,37.784,0.358
											c8.023,0.081,16.838,0.17,26.339,0.266c4.751,0.049,9.674,0.099,14.755,0.152c2.541,0.026,5.121,0.053,7.74,0.08
											c1.309,0.014,2.628,0.027,3.956,0.041c0.337,0.009,0.653-0.006,1.012,0.025c0.35,0.037,0.693,0.136,1.01,0.292
											c0.634,0.31,1.154,0.852,1.435,1.505c0.147,0.327,0.207,0.682,0.273,1.005l0.202,0.995
											c0.135,0.664,0.271,1.331,0.407,1.999c0.272,1.337,0.546,2.683,0.822,4.037c0.551,2.709,1.109,5.451,1.674,8.226
											c1.129,5.55,2.285,11.23,3.464,17.026c2.357,11.594,4.808,23.655,7.334,36.08l-0.175-0.143
											c4.943,0,10.009-0.001,15.158-0.001c2.575,0,5.17,0,7.781,0l1.962,0h0.983c0.319,0.003,0.669-0.016,1.018,0.061
											c0.689,0.142,1.314,0.562,1.714,1.142c0.405,0.578,0.571,1.314,0.463,2.01c-0.12,0.856-0.674,1.623-1.427,2.034
											c-0.378,0.202-0.802,0.317-1.23,0.332l-1.207,0.005c-1.599,0-3.194,0-4.784,0c-3.18,0-6.342,0-9.483,0
											c-6.282-0.001-12.484-0.002-18.59-0.002c-12.213-0.003-24.048-0.005-35.396-0.008
											c-22.696-0.011-43.446-0.022-61.388-0.031l-0.113,0l-0.022-0.111c-4.604-22.73-8.349-41.219-10.945-54.033
											c-1.288-6.402-2.29-11.385-2.972-14.774c-0.335-1.689-0.591-2.979-0.765-3.853
											C46.638,385.181,46.561,384.733,46.561,384.733s0.104,0.442,0.288,1.309c0.182,0.872,0.451,2.16,0.804,3.845
											c0.698,3.385,1.725,8.363,3.045,14.759c2.624,12.808,6.409,31.289,11.064,54.009l-0.136-0.111
											c17.942-0.009,38.692-0.02,61.388-0.031c11.348-0.003,23.183-0.005,35.396-0.008c6.107-0.001,12.308-0.001,18.59-0.002
											c3.141,0,6.303,0,9.483-0.001c1.59,0,3.185,0,4.784,0l1.194-0.005c0.372-0.013,0.741-0.113,1.07-0.288
											c0.655-0.358,1.139-1.026,1.242-1.77c0.094-0.608-0.05-1.247-0.402-1.75c-0.348-0.505-0.892-0.871-1.491-0.994
											c-0.296-0.066-0.607-0.051-0.943-0.053l-0.983,0h-1.962c-2.611,0-5.207,0-7.781,0c-5.149,0-10.214-0.001-15.158-0.001
											h-0.146l-0.029-0.143c-2.521-12.426-4.967-24.488-7.319-36.083c-1.175-5.797-2.327-11.478-3.452-17.029
											c-0.563-2.775-1.118-5.518-1.667-8.228c-0.274-1.354-0.547-2.701-0.818-4.038c-0.135-0.669-0.271-1.335-0.405-1.999
											l-0.202-0.995c-0.069-0.337-0.122-0.653-0.253-0.943c-0.251-0.585-0.716-1.07-1.283-1.348
											c-0.283-0.14-0.591-0.229-0.904-0.262c-0.305-0.027-0.656-0.016-0.982-0.024c-1.328-0.015-2.647-0.03-3.956-0.045
											c-2.618-0.03-5.199-0.06-7.74-0.089c-5.081-0.059-10.004-0.116-14.755-0.17c-9.501-0.112-18.316-0.215-26.339-0.31
											c-16.041-0.198-28.914-0.357-37.783-0.466c-2.215-0.03-4.18-0.057-5.883-0.08c-0.85-0.012-1.635-0.023-2.352-0.034
											c-0.36-0.006-0.698-0.013-1.013,0.054c-0.311,0.072-0.6,0.178-0.846,0.327c-1.003,0.606-1.321,1.544-1.383,2.108
											C46.481,384.431,46.581,384.732,46.561,384.733z"/>
									</g>
								</g>
							</g>
						</g>
					</g>
				</g>
			</g>
		</g>
		<g>
			<g>
				<g>
					<g>
						<g>
							<g>
								<path style="fill:#FFFFFF;" d="M106.81,418.576c0,2.385-1.934,4.318-4.318,4.318c-2.385,0-4.318-1.933-4.318-4.318
									c0-2.385,1.933-4.318,4.318-4.318C104.876,414.258,106.81,416.191,106.81,418.576z"/>
							</g>
						</g>
					</g>
				</g>
			</g>
		</g>
		<g>
			<g>
				<g>
					<g>
						<g>
							<g>
								<g>
									<path style="fill:#263238;" d="M46.683,385.331c0,0,0.153-0.011,0.451-0.015c0.311-0.002,0.75-0.004,1.322-0.008
										c1.175,0.001,2.885,0.004,5.083,0.006c4.427,0.021,10.811,0.052,18.695,0.09c15.796,0.112,37.597,0.265,61.676,0.435
										c3.012,0.024,5.987,0.048,8.92,0.072c0.733,0.006,1.464,0.012,2.191,0.018c0.355,0.008,0.735-0.016,1.12,0.067
										c0.377,0.076,0.738,0.224,1.06,0.43c0.647,0.41,1.131,1.065,1.327,1.8c0.163,0.723,0.285,1.407,0.429,2.108
										c1.105,5.571,2.172,10.944,3.187,16.063c2.023,10.237,3.845,19.456,5.377,27.203c1.516,7.737,2.743,14.002,3.594,18.345
										c0.415,2.158,0.737,3.837,0.959,4.991c0.104,0.563,0.184,0.995,0.24,1.299c0.052,0.294,0.07,0.446,0.07,0.446
										s-0.042-0.147-0.106-0.438c-0.065-0.304-0.156-0.733-0.276-1.293c-0.237-1.151-0.582-2.825-1.026-4.978
										c-0.877-4.338-2.143-10.595-3.706-18.323c-1.553-7.742-3.401-16.956-5.452-27.187c-1.022-5.118-2.095-10.49-3.208-16.059
										c-0.142-0.69-0.272-1.41-0.425-2.083c-0.173-0.651-0.603-1.23-1.176-1.593c-0.285-0.183-0.605-0.313-0.939-0.38
										c-0.328-0.073-0.681-0.053-1.051-0.06c-0.728-0.006-1.458-0.011-2.191-0.017c-2.933-0.023-5.909-0.046-8.92-0.07
										c-24.079-0.211-45.88-0.402-61.675-0.541c-7.883-0.086-14.267-0.157-18.694-0.205c-2.198-0.032-3.908-0.057-5.083-0.074
										c-0.572-0.012-1.012-0.022-1.322-0.028C46.835,385.345,46.683,385.331,46.683,385.331z"/>
								</g>
							</g>
						</g>
					</g>
				</g>
			</g>
		</g>
	</g>
</g>
</svg>
