<svg data-v-423bf9ae="" xmlns="http://www.w3.org/2000/svg" viewBox="0 0 90 90" class="iconLeft"><!----><g data-v-423bf9ae="" id="d85095e8-f2c4-4d06-bc53-7c64895c20f2" transform="matrix(1.2729843588789258,0,0,1.2729843588789258,-16.860624406010672,-17.985570702414897)" stroke="none" fill="#7c2bac"><switch><g><path d="M52.9 59c.2.1.3.1.5.1.4 0 .7-.2.9-.5.3-.5.1-1.1-.4-1.4-3.7-2-8.9-5.2-13.8-9.7 6.3-6 11.8-14 13.3-24h10.3c.6 0 1-.4 1-1s-.4-1-1-1H40v-5.9c0-.6-.4-1-1-1s-1 .4-1 1v5.9H14.5c-.6 0-1 .4-1 1s.4 1 1 1h36.8c-1.4 9.3-6.8 16.9-12.8 22.6-4.2-4-8-8.9-10.5-14.7-.2-.5-.8-.7-1.3-.5s-.7.8-.5 1.3c2.5 6 6.5 11.1 10.9 15.2-9.3 8.4-19.4 12.5-19.6 12.6-.5.2-.8.8-.6 1.3.2.4.5.6.9.6.1 0 .3 0 .4-.1.7-.3 11-4.5 20.3-12.9C43.7 53.6 49.1 57 52.9 59zM87.5 83.9l-6.7-15.6-13.6-31.6c-.2-.5-.8-.7-1.3-.5l-.1.1-.1-.1c-.5-.2-1.1 0-1.3.5L50.8 68.3l-6.7 15.6c-.2.5 0 1.1.5 1.3.1.1.3.1.4.1.4 0 .8-.2.9-.6l6.4-15h26.9l6.4 15c.2.4.5.6.9.6.1 0 .3 0 .4-.1.6-.2.9-.8.6-1.3zM53.2 67.7l12.6-29.3 12.6 29.3H53.2z"></path></g></switch></g><!----></svg>