<svg data-v-423bf9ae="" xmlns="http://www.w3.org/2000/svg" viewBox="0 0 790 90" class="iconLeft"><!----><!----><!----><g data-v-423bf9ae="" id="660265b9-6d8d-424d-8b0e-7fbe32fbab9c" fill="#7c2bac" transform="matrix(5.61797736755893,0,0,5.61797736755893,108.90121802996492,-6.57303394866161)"><path d="M0.97 14.35L3.04 14.35L3.04 9.59C3.04 8.86 3.65 8.51 4.26 8.51C4.93 8.51 5.26 8.96 5.26 9.91L5.26 14.35L7.34 14.35L7.34 9.59C7.34 8.86 7.94 8.51 8.55 8.51C9.24 8.51 9.56 8.96 9.56 9.91L9.56 14.35L11.63 14.35L11.63 9.74C11.63 7.90 10.85 6.83 9.44 6.83C8.32 6.83 7.46 7.49 7.20 8.32L7.15 8.32C6.83 7.35 6.10 6.83 5.10 6.83C4.00 6.83 3.39 7.46 3.12 8.25L3.04 8.25L3.04 7.00L0.97 7.00ZM18.02 13.03L18.02 14.35L20.09 14.35L20.09 7.13L18.02 7.13L18.02 11.87C18.02 12.57 17.39 12.92 16.74 12.92C15.93 12.92 15.53 12.43 15.53 11.52L15.53 7.13L13.45 7.13L13.45 11.80C13.45 13.55 14.42 14.52 15.81 14.52C16.97 14.52 17.61 13.85 17.93 13.03ZM21.95 12.74L21.95 14.35L28.45 14.35L28.45 12.74L26.24 12.74L26.24 3.99L21.95 3.99L21.95 5.60L24.16 5.60L24.16 12.74ZM34.16 14.35L36.83 14.35L36.83 12.74L34.02 12.74L34.02 8.74L36.83 8.74L36.83 7.13L34.02 7.13L34.02 4.58L32.12 4.58L32.12 6.27C32.12 6.92 31.88 7.13 31.26 7.13L29.99 7.13L29.99 8.74L31.95 8.74L31.95 12.26C31.95 13.48 32.66 14.35 34.16 14.35ZM42.45 6.20C43.37 6.20 43.69 5.77 43.69 5.22L43.69 4.82C43.69 4.26 43.37 3.84 42.45 3.84C41.52 3.84 41.20 4.26 41.20 4.82L41.20 5.22C41.20 5.77 41.52 6.20 42.45 6.20ZM39.12 12.74L39.12 14.35L45.61 14.35L45.61 12.74L43.48 12.74L43.48 7.13L39.12 7.13L39.12 8.74L41.41 8.74L41.41 12.74ZM51.45 6.30L54.26 6.30L54.26 4.58L46.54 4.58L46.54 6.30L49.35 6.30L49.35 14.35L51.45 14.35ZM55.64 12.74L55.64 14.35L61.75 14.35L61.75 12.74L59.37 12.74L59.37 10.25C59.37 9.44 60.00 9.03 60.93 9.03L62.47 9.03L62.47 7.13L61.78 7.13C60.47 7.13 59.78 8.05 59.47 9.00L59.37 9.00L59.37 7.13L55.64 7.13L55.64 8.74L57.30 8.74L57.30 12.74ZM69.82 14.35L71.01 14.35L71.01 12.85L70.21 12.85L70.21 9.69C70.21 7.87 69.03 6.96 67.06 6.96C65.45 6.96 64.40 7.56 63.92 8.37L65.06 9.38C65.45 8.85 65.95 8.47 66.82 8.47C67.77 8.47 68.14 8.92 68.14 9.77L68.14 10.14L66.98 10.14C64.86 10.14 63.73 10.85 63.73 12.36C63.73 13.72 64.65 14.52 66.05 14.52C67.16 14.52 68.00 14.01 68.25 13.08L68.32 13.08C68.40 13.89 68.96 14.35 69.82 14.35ZM66.84 13.16C66.18 13.16 65.76 12.89 65.76 12.39L65.76 12.11C65.76 11.55 66.21 11.26 67.03 11.26L68.14 11.26L68.14 12.12C68.14 12.80 67.56 13.16 66.84 13.16ZM72.31 14.35L74.38 14.35L74.38 9.60C74.38 8.90 75.01 8.55 75.66 8.55C76.47 8.55 76.87 9.04 76.87 9.95L76.87 14.35L78.95 14.35L78.95 9.67C78.95 7.92 77.98 6.96 76.59 6.96C75.43 6.96 74.79 7.63 74.47 8.44L74.38 8.44L74.38 7.13L72.31 7.13ZM83.92 14.52C86.06 14.52 87.28 13.57 87.28 12.07C87.28 10.70 86.25 10.15 84.95 9.95L83.80 9.77C83.24 9.69 82.91 9.56 82.91 9.14C82.91 8.67 83.33 8.41 84.11 8.41C85.05 8.41 85.74 8.78 86.16 9.24L87.19 8.06C86.59 7.36 85.60 6.96 84.18 6.96C82.10 6.96 80.88 7.87 80.88 9.38C80.88 10.75 81.90 11.30 83.19 11.49L84.35 11.68C84.91 11.76 85.25 11.89 85.25 12.29C85.25 12.81 84.74 13.06 83.93 13.06C82.96 13.06 82.21 12.70 81.65 12.08L80.49 13.16C81.07 14 82.32 14.52 83.92 14.52ZM89.15 12.74L89.15 14.35L95.65 14.35L95.65 12.74L93.44 12.74L93.44 3.99L89.15 3.99L89.15 5.60L91.36 5.60L91.36 12.74ZM103.42 14.35L104.61 14.35L104.61 12.85L103.81 12.85L103.81 9.69C103.81 7.87 102.63 6.96 100.66 6.96C99.05 6.96 98.00 7.56 97.52 8.37L98.66 9.38C99.05 8.85 99.55 8.47 100.42 8.47C101.37 8.47 101.74 8.92 101.74 9.77L101.74 10.14L100.58 10.14C98.46 10.14 97.33 10.85 97.33 12.36C97.33 13.72 98.25 14.52 99.65 14.52C100.76 14.52 101.60 14.01 101.85 13.08L101.92 13.08C102.00 13.89 102.56 14.35 103.42 14.35ZM100.44 13.16C99.78 13.16 99.36 12.89 99.36 12.39L99.36 12.11C99.36 11.55 99.81 11.26 100.63 11.26L101.74 11.26L101.74 12.12C101.74 12.80 101.16 13.16 100.44 13.16ZM109.76 14.35L112.43 14.35L112.43 12.74L109.62 12.74L109.62 8.74L112.43 8.74L112.43 7.13L109.62 7.13L109.62 4.58L107.72 4.58L107.72 6.27C107.72 6.92 107.48 7.13 106.86 7.13L105.59 7.13L105.59 8.74L107.55 8.74L107.55 12.26C107.55 13.48 108.26 14.35 109.76 14.35ZM117.80 14.52C119.35 14.52 120.33 13.93 120.89 13.24L119.77 12.03C119.32 12.56 118.72 12.92 117.87 12.92C116.76 12.92 116.16 12.29 116.16 11.37L116.16 11.24L121.10 11.24L121.10 10.63C121.10 8.37 119.77 6.96 117.61 6.96C115.44 6.96 114.10 8.40 114.10 10.77C114.10 13.08 115.37 14.52 117.80 14.52ZM117.63 8.44C118.52 8.44 119.07 9.03 119.07 9.97L119.07 10.08L116.16 10.08L116.16 9.97C116.16 9.04 116.73 8.44 117.63 8.44Z"></path></g><!----><g data-v-423bf9ae="" id="d85095e8-f2c4-4d06-bc53-7c64895c20f2" transform="matrix(1.2729843588789258,0,0,1.2729843588789258,-16.860624406010672,-17.985570702414897)" stroke="none" fill="#7c2bac"><switch><g><path d="M52.9 59c.2.1.3.1.5.1.4 0 .7-.2.9-.5.3-.5.1-1.1-.4-1.4-3.7-2-8.9-5.2-13.8-9.7 6.3-6 11.8-14 13.3-24h10.3c.6 0 1-.4 1-1s-.4-1-1-1H40v-5.9c0-.6-.4-1-1-1s-1 .4-1 1v5.9H14.5c-.6 0-1 .4-1 1s.4 1 1 1h36.8c-1.4 9.3-6.8 16.9-12.8 22.6-4.2-4-8-8.9-10.5-14.7-.2-.5-.8-.7-1.3-.5s-.7.8-.5 1.3c2.5 6 6.5 11.1 10.9 15.2-9.3 8.4-19.4 12.5-19.6 12.6-.5.2-.8.8-.6 1.3.2.4.5.6.9.6.1 0 .3 0 .4-.1.7-.3 11-4.5 20.3-12.9C43.7 53.6 49.1 57 52.9 59zM87.5 83.9l-6.7-15.6-13.6-31.6c-.2-.5-.8-.7-1.3-.5l-.1.1-.1-.1c-.5-.2-1.1 0-1.3.5L50.8 68.3l-6.7 15.6c-.2.5 0 1.1.5 1.3.1.1.3.1.4.1.4 0 .8-.2.9-.6l6.4-15h26.9l6.4 15c.2.4.5.6.9.6.1 0 .3 0 .4-.1.6-.2.9-.8.6-1.3zM53.2 67.7l12.6-29.3 12.6 29.3H53.2z"></path></g></switch></g><!----></svg>